<svg width="375" height="899" viewBox="0 0 375 899" fill="none" xmlns="http://www.w3.org/2000/svg">
<g clip-path="url(#clip0_4_4)">
<rect width="375" height="898.881" fill="white"/>
<path d="M33.8398 43.8874L26.0946 51.8073V62.9207H20V20H26.0946V44.0151L49.2032 20H56.1865L38.0298 39.2887L57.4562 62.9207H50.3459L33.8398 43.8874Z" fill="#FF6060"/>
<path d="M101.896 59.4718L104.308 54.8731C107.102 56.7892 111.419 58.1944 115.609 58.1944C121.068 58.1944 123.227 56.5337 123.227 53.7235C123.227 46.4423 102.785 52.7015 102.785 39.7998C102.785 33.9238 107.99 30.0916 116.243 30.0916C120.433 30.0916 125.258 31.2412 128.052 33.0296L125.512 37.6282C122.592 35.7121 119.418 35.0734 116.243 35.0734C111.165 35.0734 108.625 36.9895 108.625 39.5443C108.625 47.2087 129.067 40.9495 129.067 53.5957C129.067 59.4718 123.735 63.1762 115.101 63.1762C109.895 63.304 104.562 61.6433 101.896 59.4718Z" fill="#FF6060"/>
<path d="M165 43.2486V62.9206H159.413V58.5774C157.509 61.5154 153.827 63.176 148.748 63.176C141.384 63.176 136.813 59.2161 136.813 53.5955C136.813 48.3582 140.114 44.1428 149.764 44.1428H159.033V42.9931C159.033 38.0112 156.112 35.201 150.399 35.201C146.589 35.201 142.653 36.6061 140.114 38.6499L137.702 34.179C141.003 31.4965 145.828 29.9636 151.033 29.9636C160.048 30.0914 165 34.4345 165 43.2486ZM159.16 52.9568V48.3582H150.145C144.304 48.3582 142.653 50.6575 142.653 53.34C142.653 56.5336 145.32 58.5774 149.764 58.5774C154.208 58.7051 157.763 56.789 159.16 52.9568Z" fill="#FF6060"/>
<path d="M83.1041 54.3623V63.0486L86.7863 60.877V52.1907L83.1041 54.3623Z" fill="#FF6060"/>
<path d="M93.2618 43.7597L78.1523 34.9457L69.7723 30.0916L61.5192 44.5262L61.6462 58.0666L76.6287 66.8807L78.1523 65.9865V53.2125L84.8817 41.3327L91.7381 45.2926V58.0666L93.2618 57.1724V43.7597Z" fill="#FF6060"/>
<path d="M215.436 45.8402H210.972L210.048 47.9402H208.812L212.616 39.5402H213.804L217.62 47.9402H216.36L215.436 45.8402ZM215.016 44.8802L213.204 40.7642L211.392 44.8802H215.016ZM222.512 48.0362C221.672 48.0362 220.912 47.8522 220.232 47.4842C219.56 47.1082 219.032 46.5962 218.648 45.9482C218.264 45.2922 218.072 44.5562 218.072 43.7402C218.072 42.9242 218.264 42.1922 218.648 41.5442C219.032 40.8882 219.564 40.3762 220.244 40.0082C220.924 39.6322 221.684 39.4442 222.524 39.4442C223.18 39.4442 223.78 39.5562 224.324 39.7802C224.868 39.9962 225.332 40.3202 225.716 40.7522L224.936 41.5082C224.304 40.8442 223.516 40.5122 222.572 40.5122C221.948 40.5122 221.384 40.6522 220.88 40.9322C220.376 41.2122 219.98 41.6002 219.692 42.0962C219.412 42.5842 219.272 43.1322 219.272 43.7402C219.272 44.3482 219.412 44.9002 219.692 45.3962C219.98 45.8842 220.376 46.2682 220.88 46.5482C221.384 46.8282 221.948 46.9682 222.572 46.9682C223.508 46.9682 224.296 46.6322 224.936 45.9602L225.716 46.7162C225.332 47.1482 224.864 47.4762 224.312 47.7002C223.768 47.9242 223.168 48.0362 222.512 48.0362ZM231.008 48.0362C230.168 48.0362 229.408 47.8522 228.728 47.4842C228.056 47.1082 227.528 46.5962 227.144 45.9482C226.76 45.2922 226.568 44.5562 226.568 43.7402C226.568 42.9242 226.76 42.1922 227.144 41.5442C227.528 40.8882 228.06 40.3762 228.74 40.0082C229.42 39.6322 230.18 39.4442 231.02 39.4442C231.676 39.4442 232.276 39.5562 232.82 39.7802C233.364 39.9962 233.828 40.3202 234.212 40.7522L233.432 41.5082C232.8 40.8442 232.012 40.5122 231.068 40.5122C230.444 40.5122 229.88 40.6522 229.376 40.9322C228.872 41.2122 228.476 41.6002 228.188 42.0962C227.908 42.5842 227.768 43.1322 227.768 43.7402C227.768 44.3482 227.908 44.9002 228.188 45.3962C228.476 45.8842 228.872 46.2682 229.376 46.5482C229.88 46.8282 230.444 46.9682 231.068 46.9682C232.004 46.9682 232.792 46.6322 233.432 45.9602L234.212 46.7162C233.828 47.1482 233.36 47.4762 232.808 47.7002C232.264 47.9242 231.664 48.0362 231.008 48.0362ZM239.369 48.0362C238.249 48.0362 237.377 47.7162 236.753 47.0762C236.129 46.4362 235.817 45.5162 235.817 44.3162V39.5402H237.017V44.2682C237.017 46.0682 237.805 46.9682 239.381 46.9682C240.149 46.9682 240.737 46.7482 241.145 46.3082C241.553 45.8602 241.757 45.1802 241.757 44.2682V39.5402H242.921V44.3162C242.921 45.5242 242.609 46.4482 241.985 47.0882C241.361 47.7202 240.489 48.0362 239.369 48.0362ZM251.477 46.8962V47.9402H245.381V39.5402H251.309V40.5842H246.581V43.1642H250.793V44.1842H246.581V46.8962H251.477ZM253.42 39.5402H254.62V47.9402H253.42V39.5402ZM257.135 39.5402H258.335V46.8962H262.883V47.9402H257.135V39.5402Z" fill="#FF6060"/>
<path d="M296.069 45.8402H291.605L290.681 47.9402H289.445L293.249 39.5402H294.437L298.253 47.9402H296.993L296.069 45.8402ZM295.649 44.8802L293.837 40.7642L292.025 44.8802H295.649ZM306.005 39.5402C307.093 39.5402 307.949 39.8002 308.573 40.3202C309.197 40.8402 309.509 41.5562 309.509 42.4682C309.509 43.3802 309.197 44.0962 308.573 44.6162C307.949 45.1362 307.093 45.3962 306.005 45.3962H303.929V47.9402H302.729V39.5402H306.005ZM305.969 44.3522C306.729 44.3522 307.309 44.1922 307.709 43.8722C308.109 43.5442 308.309 43.0762 308.309 42.4682C308.309 41.8602 308.109 41.3962 307.709 41.0762C307.309 40.7482 306.729 40.5842 305.969 40.5842H303.929V44.3522H305.969ZM316.888 47.9402L315.076 45.3602C314.852 45.3762 314.676 45.3842 314.548 45.3842H312.472V47.9402H311.272V39.5402H314.548C315.636 39.5402 316.492 39.8002 317.116 40.3202C317.74 40.8402 318.052 41.5562 318.052 42.4682C318.052 43.1162 317.892 43.6682 317.572 44.1242C317.252 44.5802 316.796 44.9122 316.204 45.1202L318.196 47.9402H316.888ZM314.512 44.3642C315.272 44.3642 315.852 44.2002 316.252 43.8722C316.652 43.5442 316.852 43.0762 316.852 42.4682C316.852 41.8602 316.652 41.3962 316.252 41.0762C315.852 40.7482 315.272 40.5842 314.512 40.5842H312.472V44.3642H314.512ZM323.782 48.0362C322.934 48.0362 322.17 47.8522 321.49 47.4842C320.81 47.1082 320.274 46.5922 319.882 45.9362C319.498 45.2802 319.306 44.5482 319.306 43.7402C319.306 42.9322 319.498 42.2002 319.882 41.5442C320.274 40.8882 320.81 40.3762 321.49 40.0082C322.17 39.6322 322.934 39.4442 323.782 39.4442C324.622 39.4442 325.382 39.6322 326.062 40.0082C326.742 40.3762 327.274 40.8882 327.658 41.5442C328.042 42.1922 328.234 42.9242 328.234 43.7402C328.234 44.5562 328.042 45.2922 327.658 45.9482C327.274 46.5962 326.742 47.1082 326.062 47.4842C325.382 47.8522 324.622 48.0362 323.782 48.0362ZM323.782 46.9682C324.398 46.9682 324.95 46.8282 325.438 46.5482C325.934 46.2682 326.322 45.8842 326.602 45.3962C326.89 44.9002 327.034 44.3482 327.034 43.7402C327.034 43.1322 326.89 42.5842 326.602 42.0962C326.322 41.6002 325.934 41.2122 325.438 40.9322C324.95 40.6522 324.398 40.5122 323.782 40.5122C323.166 40.5122 322.606 40.6522 322.102 40.9322C321.606 41.2122 321.214 41.6002 320.926 42.0962C320.646 42.5842 320.506 43.1322 320.506 43.7402C320.506 44.3482 320.646 44.9002 320.926 45.3962C321.214 45.8842 321.606 46.2682 322.102 46.5482C322.606 46.8282 323.166 46.9682 323.782 46.9682ZM333.345 39.5402C334.433 39.5402 335.289 39.8002 335.913 40.3202C336.537 40.8402 336.849 41.5562 336.849 42.4682C336.849 43.3802 336.537 44.0962 335.913 44.6162C335.289 45.1362 334.433 45.3962 333.345 45.3962H331.269V47.9402H330.069V39.5402H333.345ZM333.309 44.3522C334.069 44.3522 334.649 44.1922 335.049 43.8722C335.449 43.5442 335.649 43.0762 335.649 42.4682C335.649 41.8602 335.449 41.3962 335.049 41.0762C334.649 40.7482 334.069 40.5842 333.309 40.5842H331.269V44.3522H333.309ZM342.521 48.0362C341.673 48.0362 340.909 47.8522 340.229 47.4842C339.549 47.1082 339.013 46.5922 338.621 45.9362C338.237 45.2802 338.045 44.5482 338.045 43.7402C338.045 42.9322 338.237 42.2002 338.621 41.5442C339.013 40.8882 339.549 40.3762 340.229 40.0082C340.909 39.6322 341.673 39.4442 342.521 39.4442C343.361 39.4442 344.121 39.6322 344.801 40.0082C345.481 40.3762 346.013 40.8882 346.397 41.5442C346.781 42.1922 346.973 42.9242 346.973 43.7402C346.973 44.5562 346.781 45.2922 346.397 45.9482C346.013 46.5962 345.481 47.1082 344.801 47.4842C344.121 47.8522 343.361 48.0362 342.521 48.0362ZM342.521 46.9682C343.137 46.9682 343.689 46.8282 344.177 46.5482C344.673 46.2682 345.061 45.8842 345.341 45.3962C345.629 44.9002 345.773 44.3482 345.773 43.7402C345.773 43.1322 345.629 42.5842 345.341 42.0962C345.061 41.6002 344.673 41.2122 344.177 40.9322C343.689 40.6522 343.137 40.5122 342.521 40.5122C341.905 40.5122 341.345 40.6522 340.841 40.9322C340.345 41.2122 339.953 41.6002 339.665 42.0962C339.385 42.5842 339.245 43.1322 339.245 43.7402C339.245 44.3482 339.385 44.9002 339.665 45.3962C339.953 45.8842 340.345 46.2682 340.841 46.5482C341.345 46.8282 341.905 46.9682 342.521 46.9682ZM351.255 48.0362C350.623 48.0362 350.011 47.9402 349.419 47.7482C348.835 47.5482 348.375 47.2922 348.039 46.9802L348.483 46.0442C348.803 46.3322 349.211 46.5682 349.707 46.7522C350.211 46.9282 350.727 47.0162 351.255 47.0162C351.951 47.0162 352.471 46.9002 352.815 46.6682C353.159 46.4282 353.331 46.1122 353.331 45.7202C353.331 45.4322 353.235 45.2002 353.043 45.0242C352.859 44.8402 352.627 44.7002 352.347 44.6042C352.075 44.5082 351.687 44.4002 351.183 44.2802C350.551 44.1282 350.039 43.9762 349.647 43.8242C349.263 43.6722 348.931 43.4402 348.651 43.1282C348.379 42.8082 348.243 42.3802 348.243 41.8442C348.243 41.3962 348.359 40.9922 348.591 40.6322C348.831 40.2722 349.191 39.9842 349.671 39.7682C350.151 39.5522 350.747 39.4442 351.459 39.4442C351.955 39.4442 352.443 39.5082 352.923 39.6362C353.403 39.7642 353.815 39.9482 354.159 40.1882L353.763 41.1482C353.411 40.9242 353.035 40.7562 352.635 40.6442C352.235 40.5242 351.843 40.4642 351.459 40.4642C350.779 40.4642 350.267 40.5882 349.923 40.8362C349.587 41.0842 349.419 41.4042 349.419 41.7962C349.419 42.0842 349.515 42.3202 349.707 42.5042C349.899 42.6802 350.135 42.8202 350.415 42.9242C350.703 43.0202 351.091 43.1242 351.579 43.2362C352.211 43.3882 352.719 43.5402 353.103 43.6922C353.487 43.8442 353.815 44.0762 354.087 44.3882C354.367 44.7002 354.507 45.1202 354.507 45.6482C354.507 46.0882 354.387 46.4922 354.147 46.8602C353.907 47.2202 353.543 47.5082 353.055 47.7242C352.567 47.9322 351.967 48.0362 351.255 48.0362Z" fill="#FF6060"/>
<path d="M154.014 249.769H143.07V263.881H127.902V249.769H91.7104V239.305L123.39 196.681H139.71L110.334 237.097H128.382V224.521H143.07V237.097H154.014V249.769ZM187.466 265.033C181.898 265.033 176.938 263.657 172.586 260.905C168.234 258.153 164.81 254.185 162.314 249.001C159.882 243.753 158.666 237.513 158.666 230.281C158.666 223.049 159.882 216.841 162.314 211.657C164.81 206.409 168.234 202.409 172.586 199.657C176.938 196.905 181.898 195.529 187.466 195.529C193.034 195.529 197.994 196.905 202.346 199.657C206.698 202.409 210.09 206.409 212.522 211.657C215.018 216.841 216.266 223.049 216.266 230.281C216.266 237.513 215.018 243.753 212.522 249.001C210.09 254.185 206.698 258.153 202.346 260.905C197.994 263.657 193.034 265.033 187.466 265.033ZM187.466 251.881C191.562 251.881 194.762 250.121 197.066 246.601C199.434 243.081 200.618 237.641 200.618 230.281C200.618 222.921 199.434 217.481 197.066 213.961C194.762 210.441 191.562 208.681 187.466 208.681C183.434 208.681 180.234 210.441 177.866 213.961C175.562 217.481 174.41 222.921 174.41 230.281C174.41 237.641 175.562 243.081 177.866 246.601C180.234 250.121 183.434 251.881 187.466 251.881ZM285.358 249.769H274.414V263.881H259.246V249.769H223.054V239.305L254.734 196.681H271.054L241.678 237.097H259.726V224.521H274.414V237.097H285.358V249.769Z" fill="#FF6060"/>
<path d="M107.003 411.025C105.731 411.025 104.585 410.749 103.565 410.197C102.545 409.633 101.741 408.859 101.153 407.875C100.577 406.891 100.289 405.793 100.289 404.581C100.289 403.369 100.577 402.271 101.153 401.287C101.741 400.303 102.545 399.535 103.565 398.983C104.585 398.419 105.731 398.137 107.003 398.137C108.263 398.137 109.403 398.419 110.423 398.983C111.443 399.535 112.241 400.303 112.817 401.287C113.393 402.259 113.681 403.357 113.681 404.581C113.681 405.805 113.393 406.909 112.817 407.893C112.241 408.865 111.443 409.633 110.423 410.197C109.403 410.749 108.263 411.025 107.003 411.025ZM107.003 409.423C107.927 409.423 108.755 409.213 109.487 408.793C110.231 408.373 110.813 407.797 111.233 407.065C111.665 406.321 111.881 405.493 111.881 404.581C111.881 403.669 111.665 402.847 111.233 402.115C110.813 401.371 110.231 400.789 109.487 400.369C108.755 399.949 107.927 399.739 107.003 399.739C106.079 399.739 105.239 399.949 104.483 400.369C103.739 400.789 103.151 401.371 102.719 402.115C102.299 402.847 102.089 403.669 102.089 404.581C102.089 405.493 102.299 406.321 102.719 407.065C103.151 407.797 103.739 408.373 104.483 408.793C105.239 409.213 106.079 409.423 107.003 409.423ZM125.072 401.341V410.881H123.434V409.441C123.086 409.933 122.624 410.317 122.048 410.593C121.484 410.857 120.866 410.989 120.194 410.989C118.922 410.989 117.92 410.641 117.188 409.945C116.456 409.237 116.09 408.199 116.09 406.831V401.341H117.818V406.633C117.818 407.557 118.04 408.259 118.484 408.739C118.928 409.207 119.564 409.441 120.392 409.441C121.304 409.441 122.024 409.165 122.552 408.613C123.08 408.061 123.344 407.281 123.344 406.273V401.341H125.072ZM133.42 401.251C134.344 401.251 135.172 401.455 135.904 401.863C136.636 402.271 137.206 402.841 137.614 403.573C138.034 404.305 138.244 405.151 138.244 406.111C138.244 407.071 138.034 407.923 137.614 408.667C137.206 409.399 136.636 409.969 135.904 410.377C135.172 410.785 134.344 410.989 133.42 410.989C132.736 410.989 132.106 410.857 131.53 410.593C130.966 410.329 130.486 409.945 130.09 409.441V414.373H128.362V401.341H130.018V402.853C130.402 402.325 130.888 401.929 131.476 401.665C132.064 401.389 132.712 401.251 133.42 401.251ZM133.276 409.477C133.888 409.477 134.434 409.339 134.914 409.063C135.406 408.775 135.79 408.379 136.066 407.875C136.354 407.359 136.498 406.771 136.498 406.111C136.498 405.451 136.354 404.869 136.066 404.365C135.79 403.849 135.406 403.453 134.914 403.177C134.434 402.901 133.888 402.763 133.276 402.763C132.676 402.763 132.13 402.907 131.638 403.195C131.158 403.471 130.774 403.861 130.486 404.365C130.21 404.869 130.072 405.451 130.072 406.111C130.072 406.771 130.21 407.359 130.486 407.875C130.762 408.379 131.146 408.775 131.638 409.063C132.13 409.339 132.676 409.477 133.276 409.477ZM143.367 410.989C142.587 410.989 141.837 410.887 141.117 410.683C140.397 410.467 139.833 410.197 139.425 409.873L140.145 408.505C140.565 408.805 141.075 409.045 141.675 409.225C142.275 409.405 142.881 409.495 143.493 409.495C145.005 409.495 145.761 409.063 145.761 408.199C145.761 407.911 145.659 407.683 145.455 407.515C145.251 407.347 144.993 407.227 144.681 407.155C144.381 407.071 143.949 406.981 143.385 406.885C142.617 406.765 141.987 406.627 141.495 406.471C141.015 406.315 140.601 406.051 140.253 405.679C139.905 405.307 139.731 404.785 139.731 404.113C139.731 403.249 140.091 402.559 140.811 402.043C141.531 401.515 142.497 401.251 143.709 401.251C144.345 401.251 144.981 401.329 145.617 401.485C146.253 401.641 146.775 401.851 147.183 402.115L146.445 403.483C145.665 402.979 144.747 402.727 143.691 402.727C142.959 402.727 142.401 402.847 142.017 403.087C141.633 403.327 141.441 403.645 141.441 404.041C141.441 404.353 141.549 404.599 141.765 404.779C141.981 404.959 142.245 405.091 142.557 405.175C142.881 405.259 143.331 405.355 143.907 405.463C144.675 405.595 145.293 405.739 145.761 405.895C146.241 406.039 146.649 406.291 146.985 406.651C147.321 407.011 147.489 407.515 147.489 408.163C147.489 409.027 147.117 409.717 146.373 410.233C145.641 410.737 144.639 410.989 143.367 410.989ZM149.415 398.281H151.449L151.107 406.903H149.739L149.415 398.281ZM150.441 410.989C150.105 410.989 149.823 410.881 149.595 410.665C149.367 410.437 149.253 410.161 149.253 409.837C149.253 409.513 149.367 409.243 149.595 409.027C149.823 408.799 150.105 408.685 150.441 408.685C150.777 408.685 151.053 408.799 151.269 409.027C151.485 409.243 151.593 409.513 151.593 409.837C151.593 410.161 151.479 410.437 151.251 410.665C151.035 410.881 150.765 410.989 150.441 410.989ZM159.551 398.281H161.351V409.315H168.173V410.881H159.551V398.281ZM173.513 401.251C174.833 401.251 175.841 401.575 176.537 402.223C177.245 402.871 177.599 403.837 177.599 405.121V410.881H175.961V409.621C175.673 410.065 175.259 410.407 174.719 410.647C174.191 410.875 173.561 410.989 172.829 410.989C171.761 410.989 170.903 410.731 170.255 410.215C169.619 409.699 169.301 409.021 169.301 408.181C169.301 407.341 169.607 406.669 170.219 406.165C170.831 405.649 171.803 405.391 173.135 405.391H175.871V405.049C175.871 404.305 175.655 403.735 175.223 403.339C174.791 402.943 174.155 402.745 173.315 402.745C172.751 402.745 172.199 402.841 171.659 403.033C171.119 403.213 170.663 403.459 170.291 403.771L169.571 402.475C170.063 402.079 170.651 401.779 171.335 401.575C172.019 401.359 172.745 401.251 173.513 401.251ZM173.117 409.657C173.777 409.657 174.347 409.513 174.827 409.225C175.307 408.925 175.655 408.505 175.871 407.965V406.633H173.207C171.743 406.633 171.011 407.125 171.011 408.109C171.011 408.589 171.197 408.967 171.569 409.243C171.941 409.519 172.457 409.657 173.117 409.657ZM190.689 401.251C191.613 401.251 192.441 401.455 193.173 401.863C193.905 402.271 194.475 402.841 194.883 403.573C195.303 404.305 195.513 405.151 195.513 406.111C195.513 407.071 195.303 407.923 194.883 408.667C194.475 409.399 193.905 409.969 193.173 410.377C192.441 410.785 191.613 410.989 190.689 410.989C190.005 410.989 189.375 410.857 188.799 410.593C188.235 410.329 187.755 409.945 187.359 409.441V414.373H185.631V401.341H187.287V402.853C187.671 402.325 188.157 401.929 188.745 401.665C189.333 401.389 189.981 401.251 190.689 401.251ZM190.545 409.477C191.157 409.477 191.703 409.339 192.183 409.063C192.675 408.775 193.059 408.379 193.335 407.875C193.623 407.359 193.767 406.771 193.767 406.111C193.767 405.451 193.623 404.869 193.335 404.365C193.059 403.849 192.675 403.453 192.183 403.177C191.703 402.901 191.157 402.763 190.545 402.763C189.945 402.763 189.399 402.907 188.907 403.195C188.427 403.471 188.043 403.861 187.755 404.365C187.479 404.869 187.341 405.451 187.341 406.111C187.341 406.771 187.479 407.359 187.755 407.875C188.031 408.379 188.415 408.775 188.907 409.063C189.399 409.339 189.945 409.477 190.545 409.477ZM201.287 401.251C202.607 401.251 203.615 401.575 204.311 402.223C205.019 402.871 205.373 403.837 205.373 405.121V410.881H203.735V409.621C203.447 410.065 203.033 410.407 202.493 410.647C201.965 410.875 201.335 410.989 200.603 410.989C199.535 410.989 198.677 410.731 198.029 410.215C197.393 409.699 197.075 409.021 197.075 408.181C197.075 407.341 197.381 406.669 197.993 406.165C198.605 405.649 199.577 405.391 200.909 405.391H203.645V405.049C203.645 404.305 203.429 403.735 202.997 403.339C202.565 402.943 201.929 402.745 201.089 402.745C200.525 402.745 199.973 402.841 199.433 403.033C198.893 403.213 198.437 403.459 198.065 403.771L197.345 402.475C197.837 402.079 198.425 401.779 199.109 401.575C199.793 401.359 200.519 401.251 201.287 401.251ZM200.891 409.657C201.551 409.657 202.121 409.513 202.601 409.225C203.081 408.925 203.429 408.505 203.645 407.965V406.633H200.981C199.517 406.633 198.785 407.125 198.785 408.109C198.785 408.589 198.971 408.967 199.343 409.243C199.715 409.519 200.231 409.657 200.891 409.657ZM217.749 401.341V409.585C217.749 411.253 217.335 412.483 216.507 413.275C215.679 414.079 214.443 414.481 212.799 414.481C211.899 414.481 211.041 414.355 210.225 414.103C209.409 413.863 208.749 413.515 208.245 413.059L209.073 411.727C209.517 412.111 210.063 412.411 210.711 412.627C211.371 412.855 212.049 412.969 212.745 412.969C213.861 412.969 214.683 412.705 215.211 412.177C215.751 411.649 216.021 410.845 216.021 409.765V409.009C215.613 409.501 215.109 409.873 214.509 410.125C213.921 410.365 213.279 410.485 212.583 410.485C211.671 410.485 210.843 410.293 210.099 409.909C209.367 409.513 208.791 408.967 208.371 408.271C207.951 407.563 207.741 406.759 207.741 405.859C207.741 404.959 207.951 404.161 208.371 403.465C208.791 402.757 209.367 402.211 210.099 401.827C210.843 401.443 211.671 401.251 212.583 401.251C213.303 401.251 213.969 401.383 214.581 401.647C215.205 401.911 215.715 402.301 216.111 402.817V401.341H217.749ZM212.781 408.973C213.405 408.973 213.963 408.841 214.455 408.577C214.959 408.313 215.349 407.947 215.625 407.479C215.913 406.999 216.057 406.459 216.057 405.859C216.057 404.935 215.751 404.191 215.139 403.627C214.527 403.051 213.741 402.763 212.781 402.763C211.809 402.763 211.017 403.051 210.405 403.627C209.793 404.191 209.487 404.935 209.487 405.859C209.487 406.459 209.625 406.999 209.901 407.479C210.189 407.947 210.579 408.313 211.071 408.577C211.575 408.841 212.145 408.973 212.781 408.973ZM229.673 406.165C229.673 406.297 229.661 406.471 229.637 406.687H221.897C222.005 407.527 222.371 408.205 222.995 408.721C223.631 409.225 224.417 409.477 225.353 409.477C226.493 409.477 227.411 409.093 228.107 408.325L229.061 409.441C228.629 409.945 228.089 410.329 227.441 410.593C226.805 410.857 226.091 410.989 225.299 410.989C224.291 410.989 223.397 410.785 222.617 410.377C221.837 409.957 221.231 409.375 220.799 408.631C220.379 407.887 220.169 407.047 220.169 406.111C220.169 405.187 220.373 404.353 220.781 403.609C221.201 402.865 221.771 402.289 222.491 401.881C223.223 401.461 224.045 401.251 224.957 401.251C225.869 401.251 226.679 401.461 227.387 401.881C228.107 402.289 228.665 402.865 229.061 403.609C229.469 404.353 229.673 405.205 229.673 406.165ZM224.957 402.709C224.129 402.709 223.433 402.961 222.869 403.465C222.317 403.969 221.993 404.629 221.897 405.445H228.017C227.921 404.641 227.591 403.987 227.027 403.483C226.475 402.967 225.785 402.709 224.957 402.709ZM245.907 401.341V414.373H244.179V409.441C243.783 409.945 243.297 410.329 242.721 410.593C242.157 410.857 241.533 410.989 240.849 410.989C239.925 410.989 239.097 410.785 238.365 410.377C237.633 409.969 237.057 409.399 236.637 408.667C236.229 407.923 236.025 407.071 236.025 406.111C236.025 405.151 236.229 404.305 236.637 403.573C237.057 402.841 237.633 402.271 238.365 401.863C239.097 401.455 239.925 401.251 240.849 401.251C241.557 401.251 242.205 401.389 242.793 401.665C243.381 401.929 243.867 402.325 244.251 402.853V401.341H245.907ZM240.993 409.477C241.593 409.477 242.139 409.339 242.631 409.063C243.123 408.775 243.507 408.379 243.783 407.875C244.059 407.359 244.197 406.771 244.197 406.111C244.197 405.451 244.053 404.869 243.765 404.365C243.489 403.861 243.105 403.471 242.613 403.195C242.133 402.907 241.593 402.763 240.993 402.763C240.381 402.763 239.829 402.901 239.337 403.177C238.857 403.453 238.473 403.849 238.185 404.365C237.909 404.869 237.771 405.451 237.771 406.111C237.771 406.771 237.909 407.359 238.185 407.875C238.473 408.379 238.857 408.775 239.337 409.063C239.829 409.339 240.381 409.477 240.993 409.477ZM258.068 401.341V410.881H256.43V409.441C256.082 409.933 255.62 410.317 255.044 410.593C254.48 410.857 253.862 410.989 253.19 410.989C251.918 410.989 250.916 410.641 250.184 409.945C249.452 409.237 249.086 408.199 249.086 406.831V401.341H250.814V406.633C250.814 407.557 251.036 408.259 251.48 408.739C251.924 409.207 252.56 409.441 253.388 409.441C254.3 409.441 255.02 409.165 255.548 408.613C256.076 408.061 256.34 407.281 256.34 406.273V401.341H258.068ZM269.98 406.165C269.98 406.297 269.968 406.471 269.944 406.687H262.204C262.312 407.527 262.678 408.205 263.302 408.721C263.938 409.225 264.724 409.477 265.66 409.477C266.8 409.477 267.718 409.093 268.414 408.325L269.368 409.441C268.936 409.945 268.396 410.329 267.748 410.593C267.112 410.857 266.398 410.989 265.606 410.989C264.598 410.989 263.704 410.785 262.924 410.377C262.144 409.957 261.538 409.375 261.106 408.631C260.686 407.887 260.476 407.047 260.476 406.111C260.476 405.187 260.68 404.353 261.088 403.609C261.508 402.865 262.078 402.289 262.798 401.881C263.53 401.461 264.352 401.251 265.264 401.251C266.176 401.251 266.986 401.461 267.694 401.881C268.414 402.289 268.972 402.865 269.368 403.609C269.776 404.353 269.98 405.205 269.98 406.165ZM265.264 402.709C264.436 402.709 263.74 402.961 263.176 403.465C262.624 403.969 262.3 404.629 262.204 405.445H268.324C268.228 404.641 267.898 403.987 267.334 403.483C266.782 402.967 266.092 402.709 265.264 402.709ZM67.6601 427.341L63.4841 436.881H61.7201L57.5441 427.341H59.3441L62.6201 434.991L65.9681 427.341H67.6601ZM73.0951 436.989C72.1471 436.989 71.2951 436.779 70.5391 436.359C69.7831 435.939 69.1891 435.363 68.7571 434.631C68.3371 433.887 68.1271 433.047 68.1271 432.111C68.1271 431.175 68.3371 430.341 68.7571 429.609C69.1891 428.865 69.7831 428.289 70.5391 427.881C71.2951 427.461 72.1471 427.251 73.0951 427.251C74.0431 427.251 74.8891 427.461 75.6331 427.881C76.3891 428.289 76.9771 428.865 77.3971 429.609C77.8291 430.341 78.0451 431.175 78.0451 432.111C78.0451 433.047 77.8291 433.887 77.3971 434.631C76.9771 435.363 76.3891 435.939 75.6331 436.359C74.8891 436.779 74.0431 436.989 73.0951 436.989ZM73.0951 435.477C73.7071 435.477 74.2531 435.339 74.7331 435.063C75.2251 434.775 75.6091 434.379 75.8851 433.875C76.1611 433.359 76.2991 432.771 76.2991 432.111C76.2991 431.451 76.1611 430.869 75.8851 430.365C75.6091 429.849 75.2251 429.453 74.7331 429.177C74.2531 428.901 73.7071 428.763 73.0951 428.763C72.4831 428.763 71.9311 428.901 71.4391 429.177C70.9591 429.453 70.5751 429.849 70.2871 430.365C70.0111 430.869 69.8731 431.451 69.8731 432.111C69.8731 432.771 70.0111 433.359 70.2871 433.875C70.5751 434.379 70.9591 434.775 71.4391 435.063C71.9311 435.339 72.4831 435.477 73.0951 435.477ZM89.3269 427.341V436.881H87.6889V435.441C87.3409 435.933 86.8789 436.317 86.3029 436.593C85.7389 436.857 85.1209 436.989 84.4489 436.989C83.1769 436.989 82.1749 436.641 81.4429 435.945C80.7109 435.237 80.3449 434.199 80.3449 432.831V427.341H82.0729V432.633C82.0729 433.557 82.2949 434.259 82.7389 434.739C83.1829 435.207 83.8189 435.441 84.6469 435.441C85.5589 435.441 86.2789 435.165 86.8069 434.613C87.3349 434.061 87.5989 433.281 87.5989 432.273V427.341H89.3269ZM95.3525 436.989C94.5725 436.989 93.8225 436.887 93.1025 436.683C92.3825 436.467 91.8185 436.197 91.4105 435.873L92.1305 434.505C92.5505 434.805 93.0605 435.045 93.6605 435.225C94.2605 435.405 94.8665 435.495 95.4785 435.495C96.9905 435.495 97.7465 435.063 97.7465 434.199C97.7465 433.911 97.6445 433.683 97.4405 433.515C97.2365 433.347 96.9785 433.227 96.6665 433.155C96.3665 433.071 95.9345 432.981 95.3705 432.885C94.6025 432.765 93.9725 432.627 93.4805 432.471C93.0005 432.315 92.5865 432.051 92.2385 431.679C91.8905 431.307 91.7165 430.785 91.7165 430.113C91.7165 429.249 92.0765 428.559 92.7965 428.043C93.5165 427.515 94.4825 427.251 95.6945 427.251C96.3305 427.251 96.9665 427.329 97.6025 427.485C98.2385 427.641 98.7605 427.851 99.1685 428.115L98.4305 429.483C97.6505 428.979 96.7325 428.727 95.6765 428.727C94.9445 428.727 94.3865 428.847 94.0025 429.087C93.6185 429.327 93.4265 429.645 93.4265 430.041C93.4265 430.353 93.5345 430.599 93.7505 430.779C93.9665 430.959 94.2305 431.091 94.5425 431.175C94.8665 431.259 95.3165 431.355 95.8925 431.463C96.6605 431.595 97.2785 431.739 97.7465 431.895C98.2265 432.039 98.6345 432.291 98.9705 432.651C99.3065 433.011 99.4745 433.515 99.4745 434.163C99.4745 435.027 99.1025 435.717 98.3585 436.233C97.6265 436.737 96.6245 436.989 95.3525 436.989ZM115.468 423.525V436.881H113.812V435.369C113.428 435.897 112.942 436.299 112.354 436.575C111.766 436.851 111.118 436.989 110.41 436.989C109.486 436.989 108.658 436.785 107.926 436.377C107.194 435.969 106.618 435.399 106.198 434.667C105.79 433.923 105.586 433.071 105.586 432.111C105.586 431.151 105.79 430.305 106.198 429.573C106.618 428.841 107.194 428.271 107.926 427.863C108.658 427.455 109.486 427.251 110.41 427.251C111.094 427.251 111.724 427.383 112.3 427.647C112.876 427.899 113.356 428.277 113.74 428.781V423.525H115.468ZM110.554 435.477C111.154 435.477 111.7 435.339 112.192 435.063C112.684 434.775 113.068 434.379 113.344 433.875C113.62 433.359 113.758 432.771 113.758 432.111C113.758 431.451 113.62 430.869 113.344 430.365C113.068 429.849 112.684 429.453 112.192 429.177C111.7 428.901 111.154 428.763 110.554 428.763C109.942 428.763 109.39 428.901 108.898 429.177C108.418 429.453 108.034 429.849 107.746 430.365C107.47 430.869 107.332 431.451 107.332 432.111C107.332 432.771 107.47 433.359 107.746 433.875C108.034 434.379 108.418 434.775 108.898 435.063C109.39 435.339 109.942 435.477 110.554 435.477ZM127.36 432.165C127.36 432.297 127.348 432.471 127.324 432.687H119.584C119.692 433.527 120.058 434.205 120.682 434.721C121.318 435.225 122.104 435.477 123.04 435.477C124.18 435.477 125.098 435.093 125.794 434.325L126.748 435.441C126.316 435.945 125.776 436.329 125.128 436.593C124.492 436.857 123.778 436.989 122.986 436.989C121.978 436.989 121.084 436.785 120.304 436.377C119.524 435.957 118.918 435.375 118.486 434.631C118.066 433.887 117.856 433.047 117.856 432.111C117.856 431.187 118.06 430.353 118.468 429.609C118.888 428.865 119.458 428.289 120.178 427.881C120.91 427.461 121.732 427.251 122.644 427.251C123.556 427.251 124.366 427.461 125.074 427.881C125.794 428.289 126.352 428.865 126.748 429.609C127.156 430.353 127.36 431.205 127.36 432.165ZM122.644 428.709C121.816 428.709 121.12 428.961 120.556 429.465C120.004 429.969 119.68 430.629 119.584 431.445H125.704C125.608 430.641 125.278 429.987 124.714 429.483C124.162 428.967 123.472 428.709 122.644 428.709ZM141.693 427.251C142.893 427.251 143.841 427.599 144.537 428.295C145.245 428.991 145.599 430.023 145.599 431.391V436.881H143.871V431.589C143.871 430.665 143.655 429.969 143.223 429.501C142.803 429.033 142.197 428.799 141.405 428.799C140.529 428.799 139.833 429.075 139.317 429.627C138.801 430.167 138.543 430.947 138.543 431.967V436.881H136.815V431.589C136.815 430.665 136.599 429.969 136.167 429.501C135.747 429.033 135.141 428.799 134.349 428.799C133.473 428.799 132.777 429.075 132.261 429.627C131.745 430.167 131.487 430.947 131.487 431.967V436.881H129.759V427.341H131.415V428.763C131.763 428.271 132.219 427.899 132.783 427.647C133.347 427.383 133.989 427.251 134.709 427.251C135.453 427.251 136.113 427.401 136.689 427.701C137.265 428.001 137.709 428.439 138.021 429.015C138.381 428.463 138.879 428.031 139.515 427.719C140.163 427.407 140.889 427.251 141.693 427.251ZM152.253 427.251C153.573 427.251 154.581 427.575 155.277 428.223C155.985 428.871 156.339 429.837 156.339 431.121V436.881H154.701V435.621C154.413 436.065 153.999 436.407 153.459 436.647C152.931 436.875 152.301 436.989 151.569 436.989C150.501 436.989 149.643 436.731 148.995 436.215C148.359 435.699 148.041 435.021 148.041 434.181C148.041 433.341 148.347 432.669 148.959 432.165C149.571 431.649 150.543 431.391 151.875 431.391H154.611V431.049C154.611 430.305 154.395 429.735 153.963 429.339C153.531 428.943 152.895 428.745 152.055 428.745C151.491 428.745 150.939 428.841 150.399 429.033C149.859 429.213 149.403 429.459 149.031 429.771L148.311 428.475C148.803 428.079 149.391 427.779 150.075 427.575C150.759 427.359 151.485 427.251 152.253 427.251ZM151.857 435.657C152.517 435.657 153.087 435.513 153.567 435.225C154.047 434.925 154.395 434.505 154.611 433.965V432.633H151.947C150.483 432.633 149.751 433.125 149.751 434.109C149.751 434.589 149.937 434.967 150.309 435.243C150.681 435.519 151.197 435.657 151.857 435.657ZM164.63 427.251C165.842 427.251 166.802 427.605 167.51 428.313C168.23 429.009 168.59 430.035 168.59 431.391V436.881H166.862V431.589C166.862 430.665 166.64 429.969 166.196 429.501C165.752 429.033 165.116 428.799 164.288 428.799C163.352 428.799 162.614 429.075 162.074 429.627C161.534 430.167 161.264 430.947 161.264 431.967V436.881H159.536V427.341H161.192V428.781C161.54 428.289 162.008 427.911 162.596 427.647C163.196 427.383 163.874 427.251 164.63 427.251ZM180.841 423.525V436.881H179.185V435.369C178.801 435.897 178.315 436.299 177.727 436.575C177.139 436.851 176.491 436.989 175.783 436.989C174.859 436.989 174.031 436.785 173.299 436.377C172.567 435.969 171.991 435.399 171.571 434.667C171.163 433.923 170.959 433.071 170.959 432.111C170.959 431.151 171.163 430.305 171.571 429.573C171.991 428.841 172.567 428.271 173.299 427.863C174.031 427.455 174.859 427.251 175.783 427.251C176.467 427.251 177.097 427.383 177.673 427.647C178.249 427.899 178.729 428.277 179.113 428.781V423.525H180.841ZM175.927 435.477C176.527 435.477 177.073 435.339 177.565 435.063C178.057 434.775 178.441 434.379 178.717 433.875C178.993 433.359 179.131 432.771 179.131 432.111C179.131 431.451 178.993 430.869 178.717 430.365C178.441 429.849 178.057 429.453 177.565 429.177C177.073 428.901 176.527 428.763 175.927 428.763C175.315 428.763 174.763 428.901 174.271 429.177C173.791 429.453 173.407 429.849 173.119 430.365C172.843 430.869 172.705 431.451 172.705 432.111C172.705 432.771 172.843 433.359 173.119 433.875C173.407 434.379 173.791 434.775 174.271 435.063C174.763 435.339 175.315 435.477 175.927 435.477ZM192.733 432.165C192.733 432.297 192.721 432.471 192.697 432.687H184.957C185.065 433.527 185.431 434.205 186.055 434.721C186.691 435.225 187.477 435.477 188.413 435.477C189.553 435.477 190.471 435.093 191.167 434.325L192.121 435.441C191.689 435.945 191.149 436.329 190.501 436.593C189.865 436.857 189.151 436.989 188.359 436.989C187.351 436.989 186.457 436.785 185.677 436.377C184.897 435.957 184.291 435.375 183.859 434.631C183.439 433.887 183.229 433.047 183.229 432.111C183.229 431.187 183.433 430.353 183.841 429.609C184.261 428.865 184.831 428.289 185.551 427.881C186.283 427.461 187.105 427.251 188.017 427.251C188.929 427.251 189.739 427.461 190.447 427.881C191.167 428.289 191.725 428.865 192.121 429.609C192.529 430.353 192.733 431.205 192.733 432.165ZM188.017 428.709C187.189 428.709 186.493 428.961 185.929 429.465C185.377 429.969 185.053 430.629 184.957 431.445H191.077C190.981 430.641 190.651 429.987 190.087 429.483C189.535 428.967 188.845 428.709 188.017 428.709ZM202.118 435.459V436.881H194.126V435.765L199.76 428.763H194.234V427.341H201.974V428.475L196.34 435.459H202.118ZM214.359 427.251C215.571 427.251 216.531 427.605 217.239 428.313C217.959 429.009 218.319 430.035 218.319 431.391V436.881H216.591V431.589C216.591 430.665 216.369 429.969 215.925 429.501C215.481 429.033 214.845 428.799 214.017 428.799C213.081 428.799 212.343 429.075 211.803 429.627C211.263 430.167 210.993 430.947 210.993 431.967V436.881H209.265V427.341H210.921V428.781C211.269 428.289 211.737 427.911 212.325 427.647C212.925 427.383 213.603 427.251 214.359 427.251ZM221.013 424.281H222.525L222.399 429.141H221.121L221.013 424.281ZM233.918 432.165C233.918 432.297 233.906 432.471 233.882 432.687H226.142C226.25 433.527 226.616 434.205 227.24 434.721C227.876 435.225 228.662 435.477 229.598 435.477C230.738 435.477 231.656 435.093 232.352 434.325L233.306 435.441C232.874 435.945 232.334 436.329 231.686 436.593C231.05 436.857 230.336 436.989 229.544 436.989C228.536 436.989 227.642 436.785 226.862 436.377C226.082 435.957 225.476 435.375 225.044 434.631C224.624 433.887 224.414 433.047 224.414 432.111C224.414 431.187 224.618 430.353 225.026 429.609C225.446 428.865 226.016 428.289 226.736 427.881C227.468 427.461 228.29 427.251 229.202 427.251C230.114 427.251 230.924 427.461 231.632 427.881C232.352 428.289 232.91 428.865 233.306 429.609C233.714 430.353 233.918 431.205 233.918 432.165ZM229.202 428.709C228.374 428.709 227.678 428.961 227.114 429.465C226.562 429.969 226.238 430.629 226.142 431.445H232.262C232.166 430.641 231.836 429.987 231.272 429.483C230.72 428.967 230.03 428.709 229.202 428.709ZM242.138 436.881L239.384 433.227L236.594 436.881H234.668L238.43 432.003L234.848 427.341H236.774L239.402 430.779L242.012 427.341H243.902L240.302 432.003L244.1 436.881H242.138ZM245.986 427.341H247.714V436.881H245.986V427.341ZM246.85 425.505C246.514 425.505 246.232 425.397 246.004 425.181C245.788 424.965 245.68 424.701 245.68 424.389C245.68 424.077 245.788 423.813 246.004 423.597C246.232 423.369 246.514 423.255 246.85 423.255C247.186 423.255 247.462 423.363 247.678 423.579C247.906 423.783 248.02 424.041 248.02 424.353C248.02 424.677 247.906 424.953 247.678 425.181C247.462 425.397 247.186 425.505 246.85 425.505ZM253.749 436.989C252.969 436.989 252.219 436.887 251.499 436.683C250.779 436.467 250.215 436.197 249.807 435.873L250.527 434.505C250.947 434.805 251.457 435.045 252.057 435.225C252.657 435.405 253.263 435.495 253.875 435.495C255.387 435.495 256.143 435.063 256.143 434.199C256.143 433.911 256.041 433.683 255.837 433.515C255.633 433.347 255.375 433.227 255.063 433.155C254.763 433.071 254.331 432.981 253.767 432.885C252.999 432.765 252.369 432.627 251.877 432.471C251.397 432.315 250.983 432.051 250.635 431.679C250.287 431.307 250.113 430.785 250.113 430.113C250.113 429.249 250.473 428.559 251.193 428.043C251.913 427.515 252.879 427.251 254.091 427.251C254.727 427.251 255.363 427.329 255.999 427.485C256.635 427.641 257.157 427.851 257.565 428.115L256.827 429.483C256.047 428.979 255.129 428.727 254.073 428.727C253.341 428.727 252.783 428.847 252.399 429.087C252.015 429.327 251.823 429.645 251.823 430.041C251.823 430.353 251.931 430.599 252.147 430.779C252.363 430.959 252.627 431.091 252.939 431.175C253.263 431.259 253.713 431.355 254.289 431.463C255.057 431.595 255.675 431.739 256.143 431.895C256.623 432.039 257.031 432.291 257.367 432.651C257.703 433.011 257.871 433.515 257.871 434.163C257.871 435.027 257.499 435.717 256.755 436.233C256.023 436.737 255.021 436.989 253.749 436.989ZM265.395 436.323C265.143 436.539 264.831 436.707 264.459 436.827C264.087 436.935 263.703 436.989 263.307 436.989C262.347 436.989 261.603 436.731 261.075 436.215C260.547 435.699 260.283 434.961 260.283 434.001V428.763H258.663V427.341H260.283V425.253H262.011V427.341H264.747V428.763H262.011V433.929C262.011 434.445 262.137 434.841 262.389 435.117C262.653 435.393 263.025 435.531 263.505 435.531C264.033 435.531 264.483 435.381 264.855 435.081L265.395 436.323ZM275.789 432.165C275.789 432.297 275.777 432.471 275.753 432.687H268.013C268.121 433.527 268.487 434.205 269.111 434.721C269.747 435.225 270.533 435.477 271.469 435.477C272.609 435.477 273.527 435.093 274.223 434.325L275.177 435.441C274.745 435.945 274.205 436.329 273.557 436.593C272.921 436.857 272.207 436.989 271.415 436.989C270.407 436.989 269.513 436.785 268.733 436.377C267.953 435.957 267.347 435.375 266.915 434.631C266.495 433.887 266.285 433.047 266.285 432.111C266.285 431.187 266.489 430.353 266.897 429.609C267.317 428.865 267.887 428.289 268.607 427.881C269.339 427.461 270.161 427.251 271.073 427.251C271.985 427.251 272.795 427.461 273.503 427.881C274.223 428.289 274.781 428.865 275.177 429.609C275.585 430.353 275.789 431.205 275.789 432.165ZM271.073 428.709C270.245 428.709 269.549 428.961 268.985 429.465C268.433 429.969 268.109 430.629 268.013 431.445H274.133C274.037 430.641 273.707 429.987 273.143 429.483C272.591 428.967 271.901 428.709 271.073 428.709ZM288.081 427.251C289.005 427.251 289.833 427.455 290.565 427.863C291.297 428.271 291.867 428.841 292.275 429.573C292.695 430.305 292.905 431.151 292.905 432.111C292.905 433.071 292.695 433.923 292.275 434.667C291.867 435.399 291.297 435.969 290.565 436.377C289.833 436.785 289.005 436.989 288.081 436.989C287.397 436.989 286.767 436.857 286.191 436.593C285.627 436.329 285.147 435.945 284.751 435.441V440.373H283.023V427.341H284.679V428.853C285.063 428.325 285.549 427.929 286.137 427.665C286.725 427.389 287.373 427.251 288.081 427.251ZM287.937 435.477C288.549 435.477 289.095 435.339 289.575 435.063C290.067 434.775 290.451 434.379 290.727 433.875C291.015 433.359 291.159 432.771 291.159 432.111C291.159 431.451 291.015 430.869 290.727 430.365C290.451 429.849 290.067 429.453 289.575 429.177C289.095 428.901 288.549 428.763 287.937 428.763C287.337 428.763 286.791 428.907 286.299 429.195C285.819 429.471 285.435 429.861 285.147 430.365C284.871 430.869 284.733 431.451 284.733 432.111C284.733 432.771 284.871 433.359 285.147 433.875C285.423 434.379 285.807 434.775 286.299 435.063C286.791 435.339 287.337 435.477 287.937 435.477ZM298.678 427.251C299.998 427.251 301.006 427.575 301.702 428.223C302.41 428.871 302.764 429.837 302.764 431.121V436.881H301.126V435.621C300.838 436.065 300.424 436.407 299.884 436.647C299.356 436.875 298.726 436.989 297.994 436.989C296.926 436.989 296.068 436.731 295.42 436.215C294.784 435.699 294.466 435.021 294.466 434.181C294.466 433.341 294.772 432.669 295.384 432.165C295.996 431.649 296.968 431.391 298.3 431.391H301.036V431.049C301.036 430.305 300.82 429.735 300.388 429.339C299.956 428.943 299.32 428.745 298.48 428.745C297.916 428.745 297.364 428.841 296.824 429.033C296.284 429.213 295.828 429.459 295.456 429.771L294.736 428.475C295.228 428.079 295.816 427.779 296.5 427.575C297.184 427.359 297.91 427.251 298.678 427.251ZM298.282 435.657C298.942 435.657 299.512 435.513 299.992 435.225C300.472 434.925 300.82 434.505 301.036 433.965V432.633H298.372C296.908 432.633 296.176 433.125 296.176 434.109C296.176 434.589 296.362 434.967 296.734 435.243C297.106 435.519 297.622 435.657 298.282 435.657ZM308.698 436.989C307.918 436.989 307.168 436.887 306.448 436.683C305.728 436.467 305.164 436.197 304.756 435.873L305.476 434.505C305.896 434.805 306.406 435.045 307.006 435.225C307.606 435.405 308.212 435.495 308.824 435.495C310.336 435.495 311.092 435.063 311.092 434.199C311.092 433.911 310.99 433.683 310.786 433.515C310.582 433.347 310.324 433.227 310.012 433.155C309.712 433.071 309.28 432.981 308.716 432.885C307.948 432.765 307.318 432.627 306.826 432.471C306.346 432.315 305.932 432.051 305.584 431.679C305.236 431.307 305.062 430.785 305.062 430.113C305.062 429.249 305.422 428.559 306.142 428.043C306.862 427.515 307.828 427.251 309.04 427.251C309.676 427.251 310.312 427.329 310.948 427.485C311.584 427.641 312.106 427.851 312.514 428.115L311.776 429.483C310.996 428.979 310.078 428.727 309.022 428.727C308.29 428.727 307.732 428.847 307.348 429.087C306.964 429.327 306.772 429.645 306.772 430.041C306.772 430.353 306.88 430.599 307.096 430.779C307.312 430.959 307.576 431.091 307.888 431.175C308.212 431.259 308.662 431.355 309.238 431.463C310.006 431.595 310.624 431.739 311.092 431.895C311.572 432.039 311.98 432.291 312.316 432.651C312.652 433.011 312.82 433.515 312.82 434.163C312.82 435.027 312.448 435.717 311.704 436.233C310.972 436.737 309.97 436.989 308.698 436.989ZM315.394 436.989C315.058 436.989 314.77 436.875 314.53 436.647C314.29 436.407 314.17 436.107 314.17 435.747C314.17 435.399 314.29 435.111 314.53 434.883C314.77 434.643 315.058 434.523 315.394 434.523C315.73 434.523 316.012 434.637 316.24 434.865C316.468 435.093 316.582 435.387 316.582 435.747C316.582 436.107 316.462 436.407 316.222 436.647C315.994 436.875 315.718 436.989 315.394 436.989Z" fill="#FF6060"/>
<path d="M85.022 571.881L82.908 568.871C82.6467 568.889 82.4413 568.899 82.292 568.899H79.87V571.881H78.47V562.081H82.292C83.5613 562.081 84.56 562.384 85.288 562.991C86.016 563.597 86.38 564.433 86.38 565.497C86.38 566.253 86.1933 566.897 85.82 567.429C85.4467 567.961 84.9147 568.348 84.224 568.591L86.548 571.881H85.022ZM82.25 567.709C83.1367 567.709 83.8133 567.517 84.28 567.135C84.7467 566.752 84.98 566.206 84.98 565.497C84.98 564.787 84.7467 564.246 84.28 563.873C83.8133 563.49 83.1367 563.299 82.25 563.299H79.87V567.709H82.25ZM95.1519 568.213C95.1519 568.315 95.1425 568.451 95.1239 568.619H89.1039C89.1879 569.272 89.4725 569.799 89.9579 570.201C90.4525 570.593 91.0639 570.789 91.7919 570.789C92.6785 570.789 93.3925 570.49 93.9339 569.893L94.6759 570.761C94.3399 571.153 93.9199 571.451 93.4159 571.657C92.9212 571.862 92.3659 571.965 91.7499 571.965C90.9659 571.965 90.2705 571.806 89.6639 571.489C89.0572 571.162 88.5859 570.709 88.2499 570.131C87.9232 569.552 87.7599 568.899 87.7599 568.171C87.7599 567.452 87.9185 566.803 88.2359 566.225C88.5625 565.646 89.0059 565.198 89.5659 564.881C90.1352 564.554 90.7745 564.391 91.4839 564.391C92.1932 564.391 92.8232 564.554 93.3739 564.881C93.9339 565.198 94.3679 565.646 94.6759 566.225C94.9932 566.803 95.1519 567.466 95.1519 568.213ZM91.4839 565.525C90.8399 565.525 90.2985 565.721 89.8599 566.113C89.4305 566.505 89.1785 567.018 89.1039 567.653H93.8639C93.7892 567.027 93.5325 566.519 93.0939 566.127C92.6645 565.725 92.1279 565.525 91.4839 565.525ZM101.19 571.447C100.994 571.615 100.751 571.745 100.462 571.839C100.173 571.923 99.8741 571.965 99.5661 571.965C98.8195 571.965 98.2408 571.764 97.8301 571.363C97.4195 570.961 97.2141 570.387 97.2141 569.641V565.567H95.9541V564.461H97.2141V562.837H98.5581V564.461H100.686V565.567H98.5581V569.585C98.5581 569.986 98.6561 570.294 98.8521 570.509C99.0575 570.723 99.3468 570.831 99.7201 570.831C100.131 570.831 100.481 570.714 100.77 570.481L101.19 571.447ZM105.747 571.965C105.01 571.965 104.347 571.801 103.759 571.475C103.171 571.148 102.709 570.7 102.373 570.131C102.046 569.552 101.883 568.899 101.883 568.171C101.883 567.443 102.046 566.794 102.373 566.225C102.709 565.646 103.171 565.198 103.759 564.881C104.347 564.554 105.01 564.391 105.747 564.391C106.484 564.391 107.142 564.554 107.721 564.881C108.309 565.198 108.766 565.646 109.093 566.225C109.429 566.794 109.597 567.443 109.597 568.171C109.597 568.899 109.429 569.552 109.093 570.131C108.766 570.7 108.309 571.148 107.721 571.475C107.142 571.801 106.484 571.965 105.747 571.965ZM105.747 570.789C106.223 570.789 106.648 570.681 107.021 570.467C107.404 570.243 107.702 569.935 107.917 569.543C108.132 569.141 108.239 568.684 108.239 568.171C108.239 567.657 108.132 567.205 107.917 566.813C107.702 566.411 107.404 566.103 107.021 565.889C106.648 565.674 106.223 565.567 105.747 565.567C105.271 565.567 104.842 565.674 104.459 565.889C104.086 566.103 103.787 566.411 103.563 566.813C103.348 567.205 103.241 567.657 103.241 568.171C103.241 568.684 103.348 569.141 103.563 569.543C103.787 569.935 104.086 570.243 104.459 570.467C104.842 570.681 105.271 570.789 105.747 570.789ZM118.372 564.461V571.881H117.098V570.761C116.827 571.143 116.468 571.442 116.02 571.657C115.581 571.862 115.1 571.965 114.578 571.965C113.588 571.965 112.809 571.694 112.24 571.153C111.67 570.602 111.386 569.795 111.386 568.731V564.461H112.73V568.577C112.73 569.295 112.902 569.841 113.248 570.215C113.593 570.579 114.088 570.761 114.732 570.761C115.441 570.761 116.001 570.546 116.412 570.117C116.822 569.687 117.028 569.081 117.028 568.297V564.461H118.372ZM122.218 565.707C122.452 565.277 122.797 564.951 123.254 564.727C123.712 564.503 124.267 564.391 124.92 564.391V565.693C124.846 565.683 124.743 565.679 124.612 565.679C123.884 565.679 123.31 565.898 122.89 566.337C122.48 566.766 122.274 567.382 122.274 568.185V571.881H120.93V564.461H122.218V565.707ZM130.539 564.391C131.481 564.391 132.228 564.666 132.779 565.217C133.339 565.758 133.619 566.556 133.619 567.611V571.881H132.275V567.765C132.275 567.046 132.102 566.505 131.757 566.141C131.411 565.777 130.917 565.595 130.273 565.595C129.545 565.595 128.971 565.809 128.551 566.239C128.131 566.659 127.921 567.265 127.921 568.059V571.881H126.577V564.461H127.865V565.581C128.135 565.198 128.499 564.904 128.957 564.699C129.423 564.493 129.951 564.391 130.539 564.391ZM142.853 568.213C142.853 568.315 142.844 568.451 142.825 568.619H136.805C136.889 569.272 137.174 569.799 137.659 570.201C138.154 570.593 138.765 570.789 139.493 570.789C140.38 570.789 141.094 570.49 141.635 569.893L142.377 570.761C142.041 571.153 141.621 571.451 141.117 571.657C140.622 571.862 140.067 571.965 139.451 571.965C138.667 571.965 137.972 571.806 137.365 571.489C136.758 571.162 136.287 570.709 135.951 570.131C135.624 569.552 135.461 568.899 135.461 568.171C135.461 567.452 135.62 566.803 135.937 566.225C136.264 565.646 136.707 565.198 137.267 564.881C137.836 564.554 138.476 564.391 139.185 564.391C139.894 564.391 140.524 564.554 141.075 564.881C141.635 565.198 142.069 565.646 142.377 566.225C142.694 566.803 142.853 567.466 142.853 568.213ZM139.185 565.525C138.541 565.525 138 565.721 137.561 566.113C137.132 566.505 136.88 567.018 136.805 567.653H141.565C141.49 567.027 141.234 566.519 140.795 566.127C140.366 565.725 139.829 565.525 139.185 565.525ZM146.007 565.707C146.241 565.277 146.586 564.951 147.043 564.727C147.501 564.503 148.056 564.391 148.709 564.391V565.693C148.635 565.683 148.532 565.679 148.401 565.679C147.673 565.679 147.099 565.898 146.679 566.337C146.269 566.766 146.063 567.382 146.063 568.185V571.881H144.719V564.461H146.007V565.707ZM156.349 571.965C155.743 571.965 155.159 571.885 154.599 571.727C154.039 571.559 153.601 571.349 153.283 571.097L153.843 570.033C154.17 570.266 154.567 570.453 155.033 570.593C155.5 570.733 155.971 570.803 156.447 570.803C157.623 570.803 158.211 570.467 158.211 569.795C158.211 569.571 158.132 569.393 157.973 569.263C157.815 569.132 157.614 569.039 157.371 568.983C157.138 568.917 156.802 568.847 156.363 568.773C155.766 568.679 155.276 568.572 154.893 568.451C154.52 568.329 154.198 568.124 153.927 567.835C153.657 567.545 153.521 567.139 153.521 566.617C153.521 565.945 153.801 565.408 154.361 565.007C154.921 564.596 155.673 564.391 156.615 564.391C157.11 564.391 157.605 564.451 158.099 564.573C158.594 564.694 159 564.857 159.317 565.063L158.743 566.127C158.137 565.735 157.423 565.539 156.601 565.539C156.032 565.539 155.598 565.632 155.299 565.819C155.001 566.005 154.851 566.253 154.851 566.561C154.851 566.803 154.935 566.995 155.103 567.135C155.271 567.275 155.477 567.377 155.719 567.443C155.971 567.508 156.321 567.583 156.769 567.667C157.367 567.769 157.847 567.881 158.211 568.003C158.585 568.115 158.902 568.311 159.163 568.591C159.425 568.871 159.555 569.263 159.555 569.767C159.555 570.439 159.266 570.975 158.687 571.377C158.118 571.769 157.339 571.965 156.349 571.965ZM168.151 564.461V571.881H166.877V570.761C166.606 571.143 166.247 571.442 165.799 571.657C165.36 571.862 164.88 571.965 164.357 571.965C163.368 571.965 162.588 571.694 162.019 571.153C161.45 570.602 161.165 569.795 161.165 568.731V564.461H162.509V568.577C162.509 569.295 162.682 569.841 163.027 570.215C163.372 570.579 163.867 570.761 164.511 570.761C165.22 570.761 165.78 570.546 166.191 570.117C166.602 569.687 166.807 569.081 166.807 568.297V564.461H168.151ZM171.998 565.707C172.231 565.277 172.576 564.951 173.034 564.727C173.491 564.503 174.046 564.391 174.7 564.391V565.693C174.625 565.683 174.522 565.679 174.392 565.679C173.664 565.679 173.09 565.898 172.67 566.337C172.259 566.766 172.054 567.382 172.054 568.185V571.881H170.71V564.461H171.998V565.707ZM180.212 561.493H181.556V571.881H180.212V561.493ZM186.824 564.391C187.85 564.391 188.634 564.643 189.176 565.147C189.726 565.651 190.002 566.402 190.002 567.401V571.881H188.728V570.901C188.504 571.246 188.182 571.512 187.762 571.699C187.351 571.876 186.861 571.965 186.292 571.965C185.461 571.965 184.794 571.764 184.29 571.363C183.795 570.961 183.548 570.434 183.548 569.781C183.548 569.127 183.786 568.605 184.262 568.213C184.738 567.811 185.494 567.611 186.53 567.611H188.658V567.345C188.658 566.766 188.49 566.323 188.154 566.015C187.818 565.707 187.323 565.553 186.67 565.553C186.231 565.553 185.802 565.627 185.382 565.777C184.962 565.917 184.607 566.108 184.318 566.351L183.758 565.343C184.14 565.035 184.598 564.801 185.13 564.643C185.662 564.475 186.226 564.391 186.824 564.391ZM186.516 570.929C187.029 570.929 187.472 570.817 187.846 570.593C188.219 570.359 188.49 570.033 188.658 569.613V568.577H186.586C185.447 568.577 184.878 568.959 184.878 569.725C184.878 570.098 185.022 570.392 185.312 570.607C185.601 570.821 186.002 570.929 186.516 570.929ZM200.183 564.391C200.901 564.391 201.545 564.549 202.115 564.867C202.684 565.184 203.127 565.627 203.445 566.197C203.771 566.766 203.935 567.424 203.935 568.171C203.935 568.917 203.771 569.58 203.445 570.159C203.127 570.728 202.684 571.171 202.115 571.489C201.545 571.806 200.901 571.965 200.183 571.965C199.651 571.965 199.161 571.862 198.713 571.657C198.274 571.451 197.901 571.153 197.593 570.761V574.597H196.249V564.461H197.537V565.637C197.835 565.226 198.213 564.918 198.671 564.713C199.128 564.498 199.632 564.391 200.183 564.391ZM200.071 570.789C200.547 570.789 200.971 570.681 201.345 570.467C201.727 570.243 202.026 569.935 202.241 569.543C202.465 569.141 202.577 568.684 202.577 568.171C202.577 567.657 202.465 567.205 202.241 566.813C202.026 566.411 201.727 566.103 201.345 565.889C200.971 565.674 200.547 565.567 200.071 565.567C199.604 565.567 199.179 565.679 198.797 565.903C198.423 566.117 198.125 566.421 197.901 566.813C197.686 567.205 197.579 567.657 197.579 568.171C197.579 568.684 197.686 569.141 197.901 569.543C198.115 569.935 198.414 570.243 198.797 570.467C199.179 570.681 199.604 570.789 200.071 570.789ZM208.425 564.391C209.452 564.391 210.236 564.643 210.777 565.147C211.328 565.651 211.603 566.402 211.603 567.401V571.881H210.329V570.901C210.105 571.246 209.783 571.512 209.363 571.699C208.953 571.876 208.463 571.965 207.893 571.965C207.063 571.965 206.395 571.764 205.891 571.363C205.397 570.961 205.149 570.434 205.149 569.781C205.149 569.127 205.387 568.605 205.863 568.213C206.339 567.811 207.095 567.611 208.131 567.611H210.259V567.345C210.259 566.766 210.091 566.323 209.755 566.015C209.419 565.707 208.925 565.553 208.271 565.553C207.833 565.553 207.403 565.627 206.983 565.777C206.563 565.917 206.209 566.108 205.919 566.351L205.359 565.343C205.742 565.035 206.199 564.801 206.731 564.643C207.263 564.475 207.828 564.391 208.425 564.391ZM208.117 570.929C208.631 570.929 209.074 570.817 209.447 570.593C209.821 570.359 210.091 570.033 210.259 569.613V568.577H208.187C207.049 568.577 206.479 568.959 206.479 569.725C206.479 570.098 206.624 570.392 206.913 570.607C207.203 570.821 207.604 570.929 208.117 570.929ZM221.229 564.461V570.873C221.229 572.17 220.907 573.127 220.263 573.743C219.619 574.368 218.658 574.681 217.379 574.681C216.679 574.681 216.012 574.583 215.377 574.387C214.743 574.2 214.229 573.929 213.837 573.575L214.481 572.539C214.827 572.837 215.251 573.071 215.755 573.239C216.269 573.416 216.796 573.505 217.337 573.505C218.205 573.505 218.845 573.299 219.255 572.889C219.675 572.478 219.885 571.853 219.885 571.013V570.425C219.568 570.807 219.176 571.097 218.709 571.293C218.252 571.479 217.753 571.573 217.211 571.573C216.502 571.573 215.858 571.423 215.279 571.125C214.71 570.817 214.262 570.392 213.935 569.851C213.609 569.3 213.445 568.675 213.445 567.975C213.445 567.275 213.609 566.654 213.935 566.113C214.262 565.562 214.71 565.137 215.279 564.839C215.858 564.54 216.502 564.391 217.211 564.391C217.771 564.391 218.289 564.493 218.765 564.699C219.251 564.904 219.647 565.207 219.955 565.609V564.461H221.229ZM217.365 570.397C217.851 570.397 218.285 570.294 218.667 570.089C219.059 569.883 219.363 569.599 219.577 569.235C219.801 568.861 219.913 568.441 219.913 567.975C219.913 567.256 219.675 566.677 219.199 566.239C218.723 565.791 218.112 565.567 217.365 565.567C216.609 565.567 215.993 565.791 215.517 566.239C215.041 566.677 214.803 567.256 214.803 567.975C214.803 568.441 214.911 568.861 215.125 569.235C215.349 569.599 215.653 569.883 216.035 570.089C216.427 570.294 216.871 570.397 217.365 570.397ZM230.503 568.213C230.503 568.315 230.494 568.451 230.475 568.619H224.455C224.539 569.272 224.824 569.799 225.309 570.201C225.804 570.593 226.415 570.789 227.143 570.789C228.03 570.789 228.744 570.49 229.285 569.893L230.027 570.761C229.691 571.153 229.271 571.451 228.767 571.657C228.273 571.862 227.717 571.965 227.101 571.965C226.317 571.965 225.622 571.806 225.015 571.489C224.409 571.162 223.937 570.709 223.601 570.131C223.275 569.552 223.111 568.899 223.111 568.171C223.111 567.452 223.27 566.803 223.587 566.225C223.914 565.646 224.357 565.198 224.917 564.881C225.487 564.554 226.126 564.391 226.835 564.391C227.545 564.391 228.175 564.554 228.725 564.881C229.285 565.198 229.719 565.646 230.027 566.225C230.345 566.803 230.503 567.466 230.503 568.213ZM226.835 565.525C226.191 565.525 225.65 565.721 225.211 566.113C224.782 566.505 224.53 567.018 224.455 567.653H229.215C229.141 567.027 228.884 566.519 228.445 566.127C228.016 565.725 227.479 565.525 226.835 565.525ZM243.129 561.493V571.881H241.841V570.705C241.543 571.115 241.165 571.428 240.707 571.643C240.25 571.857 239.746 571.965 239.195 571.965C238.477 571.965 237.833 571.806 237.263 571.489C236.694 571.171 236.246 570.728 235.919 570.159C235.602 569.58 235.443 568.917 235.443 568.171C235.443 567.424 235.602 566.766 235.919 566.197C236.246 565.627 236.694 565.184 237.263 564.867C237.833 564.549 238.477 564.391 239.195 564.391C239.727 564.391 240.217 564.493 240.665 564.699C241.113 564.895 241.487 565.189 241.785 565.581V561.493H243.129ZM239.307 570.789C239.774 570.789 240.199 570.681 240.581 570.467C240.964 570.243 241.263 569.935 241.477 569.543C241.692 569.141 241.799 568.684 241.799 568.171C241.799 567.657 241.692 567.205 241.477 566.813C241.263 566.411 240.964 566.103 240.581 565.889C240.199 565.674 239.774 565.567 239.307 565.567C238.831 565.567 238.402 565.674 238.019 565.889C237.646 566.103 237.347 566.411 237.123 566.813C236.909 567.205 236.801 567.657 236.801 568.171C236.801 568.684 236.909 569.141 237.123 569.543C237.347 569.935 237.646 570.243 238.019 570.467C238.402 570.681 238.831 570.789 239.307 570.789ZM246.008 561.409C246.27 561.409 246.484 561.502 246.652 561.689C246.83 561.866 246.918 562.09 246.918 562.361C246.918 562.501 246.904 562.641 246.876 562.781C246.848 562.911 246.788 563.103 246.694 563.355L246.022 565.315H245.14L245.658 563.229C245.481 563.163 245.336 563.056 245.224 562.907C245.122 562.748 245.07 562.566 245.07 562.361C245.07 562.081 245.159 561.852 245.336 561.675C245.514 561.497 245.738 561.409 246.008 561.409ZM251.41 564.391C252.436 564.391 253.22 564.643 253.762 565.147C254.312 565.651 254.588 566.402 254.588 567.401V571.881H253.314V570.901C253.09 571.246 252.768 571.512 252.348 571.699C251.937 571.876 251.447 571.965 250.878 571.965C250.047 571.965 249.38 571.764 248.876 571.363C248.381 570.961 248.134 570.434 248.134 569.781C248.134 569.127 248.372 568.605 248.848 568.213C249.324 567.811 250.08 567.611 251.116 567.611H253.244V567.345C253.244 566.766 253.076 566.323 252.74 566.015C252.404 565.707 251.909 565.553 251.256 565.553C250.817 565.553 250.388 565.627 249.968 565.777C249.548 565.917 249.193 566.108 248.904 566.351L248.344 565.343C248.726 565.035 249.184 564.801 249.716 564.643C250.248 564.475 250.812 564.391 251.41 564.391ZM251.102 570.929C251.615 570.929 252.058 570.817 252.432 570.593C252.805 570.359 253.076 570.033 253.244 569.613V568.577H251.172C250.033 568.577 249.464 568.959 249.464 569.725C249.464 570.098 249.608 570.392 249.898 570.607C250.187 570.821 250.588 570.929 251.102 570.929ZM260.35 571.965C259.594 571.965 258.917 571.801 258.32 571.475C257.732 571.148 257.27 570.7 256.934 570.131C256.598 569.552 256.43 568.899 256.43 568.171C256.43 567.443 256.598 566.794 256.934 566.225C257.27 565.646 257.732 565.198 258.32 564.881C258.917 564.554 259.594 564.391 260.35 564.391C261.022 564.391 261.619 564.526 262.142 564.797C262.674 565.067 263.084 565.459 263.374 565.973L262.352 566.631C262.118 566.276 261.829 566.01 261.484 565.833C261.138 565.655 260.756 565.567 260.336 565.567C259.85 565.567 259.412 565.674 259.02 565.889C258.637 566.103 258.334 566.411 258.11 566.813C257.895 567.205 257.788 567.657 257.788 568.171C257.788 568.693 257.895 569.155 258.11 569.557C258.334 569.949 258.637 570.252 259.02 570.467C259.412 570.681 259.85 570.789 260.336 570.789C260.756 570.789 261.138 570.7 261.484 570.523C261.829 570.345 262.118 570.079 262.352 569.725L263.374 570.369C263.084 570.882 262.674 571.279 262.142 571.559C261.619 571.829 261.022 571.965 260.35 571.965ZM268.238 571.965C267.482 571.965 266.806 571.801 266.208 571.475C265.62 571.148 265.158 570.7 264.822 570.131C264.486 569.552 264.318 568.899 264.318 568.171C264.318 567.443 264.486 566.794 264.822 566.225C265.158 565.646 265.62 565.198 266.208 564.881C266.806 564.554 267.482 564.391 268.238 564.391C268.91 564.391 269.508 564.526 270.03 564.797C270.562 565.067 270.973 565.459 271.262 565.973L270.24 566.631C270.007 566.276 269.718 566.01 269.372 565.833C269.027 565.655 268.644 565.567 268.224 565.567C267.739 565.567 267.3 565.674 266.908 565.889C266.526 566.103 266.222 566.411 265.998 566.813C265.784 567.205 265.676 567.657 265.676 568.171C265.676 568.693 265.784 569.155 265.998 569.557C266.222 569.949 266.526 570.252 266.908 570.467C267.3 570.681 267.739 570.789 268.224 570.789C268.644 570.789 269.027 570.7 269.372 570.523C269.718 570.345 270.007 570.079 270.24 569.725L271.262 570.369C270.973 570.882 270.562 571.279 270.03 571.559C269.508 571.829 268.91 571.965 268.238 571.965ZM279.919 564.461V571.881H278.645V570.761C278.374 571.143 278.015 571.442 277.567 571.657C277.128 571.862 276.647 571.965 276.125 571.965C275.135 571.965 274.356 571.694 273.787 571.153C273.217 570.602 272.933 569.795 272.933 568.731V564.461H274.277V568.577C274.277 569.295 274.449 569.841 274.795 570.215C275.14 570.579 275.635 570.761 276.279 570.761C276.988 570.761 277.548 570.546 277.959 570.117C278.369 569.687 278.575 569.081 278.575 568.297V564.461H279.919ZM289.183 568.213C289.183 568.315 289.174 568.451 289.155 568.619H283.135C283.219 569.272 283.504 569.799 283.989 570.201C284.484 570.593 285.095 570.789 285.823 570.789C286.71 570.789 287.424 570.49 287.965 569.893L288.707 570.761C288.371 571.153 287.951 571.451 287.447 571.657C286.952 571.862 286.397 571.965 285.781 571.965C284.997 571.965 284.302 571.806 283.695 571.489C283.088 571.162 282.617 570.709 282.281 570.131C281.954 569.552 281.791 568.899 281.791 568.171C281.791 567.452 281.95 566.803 282.267 566.225C282.594 565.646 283.037 565.198 283.597 564.881C284.166 564.554 284.806 564.391 285.515 564.391C286.224 564.391 286.854 564.554 287.405 564.881C287.965 565.198 288.399 565.646 288.707 566.225C289.024 566.803 289.183 567.466 289.183 568.213ZM285.515 565.525C284.871 565.525 284.33 565.721 283.891 566.113C283.462 566.505 283.21 567.018 283.135 567.653H287.895C287.82 567.027 287.564 566.519 287.125 566.127C286.696 565.725 286.159 565.525 285.515 565.525ZM291.049 564.461H292.393V571.881H291.049V564.461ZM291.721 563.033C291.46 563.033 291.241 562.949 291.063 562.781C290.895 562.613 290.811 562.407 290.811 562.165C290.811 561.922 290.895 561.717 291.063 561.549C291.241 561.371 291.46 561.283 291.721 561.283C291.983 561.283 292.197 561.367 292.365 561.535C292.543 561.693 292.631 561.894 292.631 562.137C292.631 562.389 292.543 562.603 292.365 562.781C292.197 562.949 291.983 563.033 291.721 563.033ZM294.96 561.493H296.304V571.881H294.96V561.493Z" fill="#FF6060"/>
<path d="M77 573.281H297.592V573.981H77V573.281Z" fill="#FF6060"/>
<rect width="375" height="209" transform="translate(0 689.881)" fill="black"/>
<path d="M138.644 775.979L132.128 782.643V791.993H127V755.881H132.128V776.086L151.571 755.881H157.447L142.17 772.11L158.515 791.993H152.532L138.644 775.979Z" fill="white"/>
<path d="M195.905 789.091L197.935 785.222C200.285 786.834 203.918 788.016 207.443 788.016C212.037 788.016 213.853 786.619 213.853 784.255C213.853 778.129 196.653 783.395 196.653 772.54C196.653 767.596 201.033 764.371 207.977 764.371C211.503 764.371 215.562 765.339 217.912 766.843L215.776 770.713C213.319 769.1 210.648 768.563 207.977 768.563C203.704 768.563 201.567 770.175 201.567 772.325C201.567 778.773 218.767 773.507 218.767 784.147C218.767 789.091 214.28 792.208 207.016 792.208C202.636 792.316 198.149 790.918 195.905 789.091Z" fill="white"/>
<path d="M249 775.441V791.993H244.299V788.339C242.697 790.811 239.599 792.208 235.326 792.208C229.13 792.208 225.284 788.876 225.284 784.147C225.284 779.74 228.061 776.194 236.18 776.194H243.979V775.226C243.979 771.035 241.522 768.67 236.715 768.67C233.51 768.67 230.198 769.853 228.061 771.572L226.031 767.81C228.809 765.553 232.869 764.264 237.249 764.264C244.834 764.371 249 768.025 249 775.441ZM244.086 783.61V779.74H236.501C231.587 779.74 230.198 781.675 230.198 783.932C230.198 786.619 232.441 788.339 236.18 788.339C239.919 788.446 242.911 786.834 244.086 783.61Z" fill="white"/>
<path d="M180.095 784.792V792.101L183.193 790.274V782.965L180.095 784.792Z" fill="white"/>
<path d="M188.641 775.871L175.928 768.455L168.877 764.371L161.933 776.516L162.04 787.909L174.646 795.325L175.928 794.573V783.825L181.59 773.829L187.359 777.161V787.909L188.641 787.157V775.871Z" fill="white"/>
<path d="M144.685 819.917C143.901 819.917 143.185 819.729 142.537 819.353C141.897 818.977 141.389 818.465 141.013 817.817C140.645 817.169 140.461 816.457 140.461 815.681C140.461 814.905 140.645 814.193 141.013 813.545C141.389 812.897 141.901 812.385 142.549 812.009C143.197 811.633 143.917 811.445 144.709 811.445C145.501 811.445 146.217 811.629 146.857 811.997C147.505 812.365 148.013 812.873 148.381 813.521C148.749 814.161 148.933 814.873 148.933 815.657C148.933 816.441 148.745 817.161 148.369 817.817C147.993 818.465 147.481 818.977 146.833 819.353C146.185 819.729 145.469 819.917 144.685 819.917ZM144.685 819.377C145.373 819.377 145.997 819.213 146.557 818.885C147.117 818.557 147.557 818.109 147.877 817.541C148.205 816.973 148.369 816.345 148.369 815.657C148.369 814.969 148.209 814.345 147.889 813.785C147.577 813.225 147.141 812.785 146.581 812.465C146.029 812.145 145.405 811.985 144.709 811.985C144.021 811.985 143.393 812.149 142.825 812.477C142.265 812.805 141.825 813.253 141.505 813.821C141.185 814.381 141.025 815.001 141.025 815.681C141.025 816.361 141.185 816.985 141.505 817.553C141.825 818.113 142.265 818.557 142.825 818.885C143.385 819.213 144.005 819.377 144.685 819.377ZM144.817 818.153C144.329 818.153 143.893 818.049 143.509 817.841C143.125 817.633 142.825 817.341 142.609 816.965C142.393 816.589 142.285 816.161 142.285 815.681C142.285 815.201 142.393 814.773 142.609 814.397C142.825 814.021 143.125 813.729 143.509 813.521C143.893 813.313 144.329 813.209 144.817 813.209C145.233 813.209 145.613 813.297 145.957 813.473C146.301 813.649 146.569 813.885 146.761 814.181L146.077 814.673C145.789 814.241 145.365 814.025 144.805 814.025C144.341 814.025 143.957 814.177 143.653 814.481C143.349 814.785 143.197 815.185 143.197 815.681C143.197 816.177 143.349 816.577 143.653 816.881C143.957 817.185 144.341 817.337 144.805 817.337C145.365 817.337 145.789 817.121 146.077 816.689L146.761 817.169C146.569 817.473 146.301 817.713 145.957 817.889C145.613 818.065 145.233 818.153 144.817 818.153ZM159.209 818.837V819.881H153.173V819.065L156.593 815.765C157.009 815.365 157.289 815.021 157.433 814.733C157.577 814.437 157.649 814.141 157.649 813.845C157.649 813.405 157.493 813.065 157.181 812.825C156.877 812.577 156.437 812.453 155.861 812.453C154.933 812.453 154.217 812.757 153.713 813.365L152.897 812.657C153.225 812.257 153.653 811.945 154.181 811.721C154.717 811.497 155.313 811.385 155.969 811.385C156.849 811.385 157.549 811.597 158.069 812.021C158.589 812.437 158.849 813.005 158.849 813.725C158.849 814.173 158.753 814.597 158.561 814.997C158.369 815.397 158.005 815.853 157.469 816.365L154.901 818.837H159.209ZM163.592 819.977C162.928 819.977 162.336 819.809 161.816 819.473C161.304 819.129 160.9 818.633 160.604 817.985C160.308 817.337 160.16 816.569 160.16 815.681C160.16 814.793 160.308 814.025 160.604 813.377C160.9 812.729 161.304 812.237 161.816 811.901C162.336 811.557 162.928 811.385 163.592 811.385C164.248 811.385 164.832 811.557 165.344 811.901C165.864 812.237 166.272 812.729 166.568 813.377C166.864 814.025 167.012 814.793 167.012 815.681C167.012 816.569 166.864 817.337 166.568 817.985C166.272 818.633 165.864 819.129 165.344 819.473C164.832 819.809 164.248 819.977 163.592 819.977ZM163.592 818.909C164.264 818.909 164.8 818.633 165.2 818.081C165.608 817.529 165.812 816.729 165.812 815.681C165.812 814.633 165.608 813.833 165.2 813.281C164.8 812.729 164.264 812.453 163.592 812.453C162.912 812.453 162.368 812.729 161.96 813.281C161.56 813.833 161.36 814.633 161.36 815.681C161.36 816.729 161.56 817.529 161.96 818.081C162.368 818.633 162.912 818.909 163.592 818.909ZM174.033 818.837V819.881H167.997V819.065L171.417 815.765C171.833 815.365 172.113 815.021 172.257 814.733C172.401 814.437 172.473 814.141 172.473 813.845C172.473 813.405 172.317 813.065 172.005 812.825C171.701 812.577 171.261 812.453 170.685 812.453C169.757 812.453 169.041 812.757 168.537 813.365L167.721 812.657C168.049 812.257 168.477 811.945 169.005 811.721C169.541 811.497 170.137 811.385 170.793 811.385C171.673 811.385 172.373 811.597 172.893 812.021C173.413 812.437 173.673 813.005 173.673 813.725C173.673 814.173 173.577 814.597 173.385 814.997C173.193 815.397 172.829 815.853 172.293 816.365L169.725 818.837H174.033ZM178.416 819.977C177.752 819.977 177.16 819.809 176.64 819.473C176.128 819.129 175.724 818.633 175.428 817.985C175.132 817.337 174.984 816.569 174.984 815.681C174.984 814.793 175.132 814.025 175.428 813.377C175.724 812.729 176.128 812.237 176.64 811.901C177.16 811.557 177.752 811.385 178.416 811.385C179.072 811.385 179.656 811.557 180.168 811.901C180.688 812.237 181.096 812.729 181.392 813.377C181.688 814.025 181.836 814.793 181.836 815.681C181.836 816.569 181.688 817.337 181.392 817.985C181.096 818.633 180.688 819.129 180.168 819.473C179.656 819.809 179.072 819.977 178.416 819.977ZM178.416 818.909C179.088 818.909 179.624 818.633 180.024 818.081C180.432 817.529 180.636 816.729 180.636 815.681C180.636 814.633 180.432 813.833 180.024 813.281C179.624 812.729 179.088 812.453 178.416 812.453C177.736 812.453 177.192 812.729 176.784 813.281C176.384 813.833 176.184 814.633 176.184 815.681C176.184 816.729 176.384 817.529 176.784 818.081C177.192 818.633 177.736 818.909 178.416 818.909ZM189.631 816.149L188.095 817.709V819.881H186.895V811.481H188.095V816.173L192.655 811.481H194.023L190.435 815.261L194.251 819.881H192.847L189.631 816.149ZM197.515 813.461C198.395 813.461 199.067 813.677 199.531 814.109C200.003 814.541 200.239 815.185 200.239 816.041V819.881H199.147V819.041C198.955 819.337 198.679 819.565 198.319 819.725C197.967 819.877 197.547 819.953 197.059 819.953C196.347 819.953 195.775 819.781 195.343 819.437C194.919 819.093 194.707 818.641 194.707 818.081C194.707 817.521 194.911 817.073 195.319 816.737C195.727 816.393 196.375 816.221 197.263 816.221H199.087V815.993C199.087 815.497 198.943 815.117 198.655 814.853C198.367 814.589 197.943 814.457 197.383 814.457C197.007 814.457 196.639 814.521 196.279 814.649C195.919 814.769 195.615 814.933 195.367 815.141L194.887 814.277C195.215 814.013 195.607 813.813 196.063 813.677C196.519 813.533 197.003 813.461 197.515 813.461ZM197.251 819.065C197.691 819.065 198.071 818.969 198.391 818.777C198.711 818.577 198.943 818.297 199.087 817.937V817.049H197.311C196.335 817.049 195.847 817.377 195.847 818.033C195.847 818.353 195.971 818.605 196.219 818.789C196.467 818.973 196.811 819.065 197.251 819.065ZM204.195 819.953C203.675 819.953 203.175 819.885 202.695 819.749C202.215 819.605 201.839 819.425 201.567 819.209L202.047 818.297C202.327 818.497 202.667 818.657 203.067 818.777C203.467 818.897 203.871 818.957 204.279 818.957C205.287 818.957 205.791 818.669 205.791 818.093C205.791 817.901 205.723 817.749 205.587 817.637C205.451 817.525 205.279 817.445 205.071 817.397C204.871 817.341 204.583 817.281 204.207 817.217C203.695 817.137 203.275 817.045 202.947 816.941C202.627 816.837 202.351 816.661 202.119 816.413C201.887 816.165 201.771 815.817 201.771 815.369C201.771 814.793 202.011 814.333 202.491 813.989C202.971 813.637 203.615 813.461 204.423 813.461C204.847 813.461 205.271 813.513 205.695 813.617C206.119 813.721 206.467 813.861 206.739 814.037L206.247 814.949C205.727 814.613 205.115 814.445 204.411 814.445C203.923 814.445 203.551 814.525 203.295 814.685C203.039 814.845 202.911 815.057 202.911 815.321C202.911 815.529 202.983 815.693 203.127 815.813C203.271 815.933 203.447 816.021 203.655 816.077C203.871 816.133 204.171 816.197 204.555 816.269C205.067 816.357 205.479 816.453 205.791 816.557C206.111 816.653 206.383 816.821 206.607 817.061C206.831 817.301 206.943 817.637 206.943 818.069C206.943 818.645 206.695 819.105 206.199 819.449C205.711 819.785 205.043 819.953 204.195 819.953ZM210.699 813.461C211.579 813.461 212.251 813.677 212.715 814.109C213.187 814.541 213.423 815.185 213.423 816.041V819.881H212.331V819.041C212.139 819.337 211.863 819.565 211.503 819.725C211.151 819.877 210.731 819.953 210.243 819.953C209.531 819.953 208.959 819.781 208.527 819.437C208.103 819.093 207.891 818.641 207.891 818.081C207.891 817.521 208.095 817.073 208.503 816.737C208.911 816.393 209.559 816.221 210.447 816.221H212.271V815.993C212.271 815.497 212.127 815.117 211.839 814.853C211.551 814.589 211.127 814.457 210.567 814.457C210.191 814.457 209.823 814.521 209.463 814.649C209.103 814.769 208.799 814.933 208.551 815.141L208.071 814.277C208.399 814.013 208.791 813.813 209.247 813.677C209.703 813.533 210.187 813.461 210.699 813.461ZM210.435 819.065C210.875 819.065 211.255 818.969 211.575 818.777C211.895 818.577 212.127 818.297 212.271 817.937V817.049H210.495C209.519 817.049 209.031 817.377 209.031 818.033C209.031 818.353 209.155 818.605 209.403 818.789C209.651 818.973 209.995 819.065 210.435 819.065ZM215.831 819.953C215.607 819.953 215.415 819.877 215.255 819.725C215.095 819.565 215.015 819.365 215.015 819.125C215.015 818.893 215.095 818.701 215.255 818.549C215.415 818.389 215.607 818.309 215.831 818.309C216.055 818.309 216.243 818.385 216.395 818.537C216.547 818.689 216.623 818.885 216.623 819.125C216.623 819.365 216.543 819.565 216.383 819.725C216.231 819.877 216.047 819.953 215.831 819.953ZM227.016 817.781H222.552L221.628 819.881H220.392L224.196 811.481H225.384L229.2 819.881H227.94L227.016 817.781ZM226.596 816.821L224.784 812.705L222.972 816.821H226.596ZM230.285 810.977H231.437V819.881H230.285V810.977ZM233.637 810.977H234.789V819.881H233.637V810.977ZM144.342 831.589C144.542 831.221 144.838 830.941 145.23 830.749C145.622 830.557 146.098 830.461 146.658 830.461V831.577C146.594 831.569 146.506 831.565 146.394 831.565C145.77 831.565 145.278 831.753 144.918 832.129C144.566 832.497 144.39 833.025 144.39 833.713V836.881H143.238V830.521H144.342V831.589ZM148.078 830.521H149.23V836.881H148.078V830.521ZM148.654 829.297C148.43 829.297 148.242 829.225 148.09 829.081C147.946 828.937 147.874 828.761 147.874 828.553C147.874 828.345 147.946 828.169 148.09 828.025C148.242 827.873 148.43 827.797 148.654 827.797C148.878 827.797 149.062 827.869 149.206 828.013C149.358 828.149 149.434 828.321 149.434 828.529C149.434 828.745 149.358 828.929 149.206 829.081C149.062 829.225 148.878 829.297 148.654 829.297ZM157.514 830.521V836.017C157.514 837.129 157.238 837.949 156.686 838.477C156.134 839.013 155.31 839.281 154.214 839.281C153.614 839.281 153.042 839.197 152.498 839.029C151.954 838.869 151.514 838.637 151.178 838.333L151.73 837.445C152.026 837.701 152.39 837.901 152.822 838.045C153.262 838.197 153.714 838.273 154.178 838.273C154.922 838.273 155.47 838.097 155.822 837.745C156.182 837.393 156.362 836.857 156.362 836.137V835.633C156.09 835.961 155.754 836.209 155.354 836.377C154.962 836.537 154.534 836.617 154.07 836.617C153.462 836.617 152.91 836.489 152.414 836.233C151.926 835.969 151.542 835.605 151.262 835.141C150.982 834.669 150.842 834.133 150.842 833.533C150.842 832.933 150.982 832.401 151.262 831.937C151.542 831.465 151.926 831.101 152.414 830.845C152.91 830.589 153.462 830.461 154.07 830.461C154.55 830.461 154.994 830.549 155.402 830.725C155.818 830.901 156.158 831.161 156.422 831.505V830.521H157.514ZM154.202 835.609C154.618 835.609 154.99 835.521 155.318 835.345C155.654 835.169 155.914 834.925 156.098 834.613C156.29 834.293 156.386 833.933 156.386 833.533C156.386 832.917 156.182 832.421 155.774 832.045C155.366 831.661 154.842 831.469 154.202 831.469C153.554 831.469 153.026 831.661 152.618 832.045C152.21 832.421 152.006 832.917 152.006 833.533C152.006 833.933 152.098 834.293 152.282 834.613C152.474 834.925 152.734 835.169 153.062 835.345C153.398 835.521 153.778 835.609 154.202 835.609ZM163.111 830.461C163.919 830.461 164.559 830.697 165.031 831.169C165.511 831.633 165.751 832.317 165.751 833.221V836.881H164.599V833.353C164.599 832.737 164.451 832.273 164.155 831.961C163.859 831.649 163.435 831.493 162.883 831.493C162.259 831.493 161.767 831.677 161.407 832.045C161.047 832.405 160.867 832.925 160.867 833.605V836.881H159.715V827.977H160.867V831.421C161.107 831.117 161.419 830.881 161.803 830.713C162.195 830.545 162.631 830.461 163.111 830.461ZM171.459 836.509C171.291 836.653 171.083 836.765 170.835 836.845C170.587 836.917 170.331 836.953 170.067 836.953C169.427 836.953 168.931 836.781 168.579 836.437C168.227 836.093 168.051 835.601 168.051 834.961V831.469H166.971V830.521H168.051V829.129H169.203V830.521H171.027V831.469H169.203V834.913C169.203 835.257 169.287 835.521 169.455 835.705C169.631 835.889 169.879 835.981 170.199 835.981C170.551 835.981 170.851 835.881 171.099 835.681L171.459 836.509ZM174.676 836.953C174.156 836.953 173.656 836.885 173.176 836.749C172.696 836.605 172.32 836.425 172.048 836.209L172.528 835.297C172.808 835.497 173.148 835.657 173.548 835.777C173.948 835.897 174.352 835.957 174.76 835.957C175.768 835.957 176.272 835.669 176.272 835.093C176.272 834.901 176.204 834.749 176.068 834.637C175.932 834.525 175.76 834.445 175.552 834.397C175.352 834.341 175.064 834.281 174.688 834.217C174.176 834.137 173.756 834.045 173.428 833.941C173.108 833.837 172.832 833.661 172.6 833.413C172.368 833.165 172.252 832.817 172.252 832.369C172.252 831.793 172.492 831.333 172.972 830.989C173.452 830.637 174.096 830.461 174.904 830.461C175.328 830.461 175.752 830.513 176.176 830.617C176.6 830.721 176.948 830.861 177.22 831.037L176.728 831.949C176.208 831.613 175.596 831.445 174.892 831.445C174.404 831.445 174.032 831.525 173.776 831.685C173.52 831.845 173.392 832.057 173.392 832.321C173.392 832.529 173.464 832.693 173.608 832.813C173.752 832.933 173.928 833.021 174.136 833.077C174.352 833.133 174.652 833.197 175.036 833.269C175.548 833.357 175.96 833.453 176.272 833.557C176.592 833.653 176.864 833.821 177.088 834.061C177.312 834.301 177.424 834.637 177.424 835.069C177.424 835.645 177.176 836.105 176.68 836.449C176.192 836.785 175.524 836.953 174.676 836.953ZM183.19 831.589C183.39 831.221 183.686 830.941 184.078 830.749C184.47 830.557 184.946 830.461 185.506 830.461V831.577C185.442 831.569 185.354 831.565 185.242 831.565C184.618 831.565 184.126 831.753 183.766 832.129C183.414 832.497 183.238 833.025 183.238 833.713V836.881H182.086V830.521H183.19V831.589ZM192.615 833.737C192.615 833.825 192.607 833.941 192.591 834.085H187.431C187.503 834.645 187.747 835.097 188.163 835.441C188.587 835.777 189.111 835.945 189.735 835.945C190.495 835.945 191.107 835.689 191.571 835.177L192.207 835.921C191.919 836.257 191.559 836.513 191.127 836.689C190.703 836.865 190.227 836.953 189.699 836.953C189.027 836.953 188.431 836.817 187.911 836.545C187.391 836.265 186.987 835.877 186.699 835.381C186.419 834.885 186.279 834.325 186.279 833.701C186.279 833.085 186.415 832.529 186.687 832.033C186.967 831.537 187.347 831.153 187.827 830.881C188.315 830.601 188.863 830.461 189.471 830.461C190.079 830.461 190.619 830.601 191.091 830.881C191.571 831.153 191.943 831.537 192.207 832.033C192.479 832.529 192.615 833.097 192.615 833.737ZM189.471 831.433C188.919 831.433 188.455 831.601 188.079 831.937C187.711 832.273 187.495 832.713 187.431 833.257H191.511C191.447 832.721 191.227 832.285 190.851 831.949C190.483 831.605 190.023 831.433 189.471 831.433ZM196.039 836.953C195.519 836.953 195.019 836.885 194.539 836.749C194.059 836.605 193.683 836.425 193.411 836.209L193.891 835.297C194.171 835.497 194.511 835.657 194.911 835.777C195.311 835.897 195.715 835.957 196.123 835.957C197.131 835.957 197.635 835.669 197.635 835.093C197.635 834.901 197.567 834.749 197.431 834.637C197.295 834.525 197.123 834.445 196.915 834.397C196.715 834.341 196.427 834.281 196.051 834.217C195.539 834.137 195.119 834.045 194.791 833.941C194.471 833.837 194.195 833.661 193.963 833.413C193.731 833.165 193.615 832.817 193.615 832.369C193.615 831.793 193.855 831.333 194.335 830.989C194.815 830.637 195.459 830.461 196.267 830.461C196.691 830.461 197.115 830.513 197.539 830.617C197.963 830.721 198.311 830.861 198.583 831.037L198.091 831.949C197.571 831.613 196.959 831.445 196.255 831.445C195.767 831.445 195.395 831.525 195.139 831.685C194.883 831.845 194.755 832.057 194.755 832.321C194.755 832.529 194.827 832.693 194.971 832.813C195.115 832.933 195.291 833.021 195.499 833.077C195.715 833.133 196.015 833.197 196.399 833.269C196.911 833.357 197.323 833.453 197.635 833.557C197.955 833.653 198.227 833.821 198.451 834.061C198.675 834.301 198.787 834.637 198.787 835.069C198.787 835.645 198.539 836.105 198.043 836.449C197.555 836.785 196.887 836.953 196.039 836.953ZM205.975 833.737C205.975 833.825 205.967 833.941 205.951 834.085H200.791C200.863 834.645 201.107 835.097 201.523 835.441C201.947 835.777 202.471 835.945 203.095 835.945C203.855 835.945 204.467 835.689 204.931 835.177L205.567 835.921C205.279 836.257 204.919 836.513 204.487 836.689C204.063 836.865 203.587 836.953 203.059 836.953C202.387 836.953 201.791 836.817 201.271 836.545C200.751 836.265 200.347 835.877 200.059 835.381C199.779 834.885 199.639 834.325 199.639 833.701C199.639 833.085 199.775 832.529 200.047 832.033C200.327 831.537 200.707 831.153 201.187 830.881C201.675 830.601 202.223 830.461 202.831 830.461C203.439 830.461 203.979 830.601 204.451 830.881C204.931 831.153 205.303 831.537 205.567 832.033C205.839 832.529 205.975 833.097 205.975 833.737ZM202.831 831.433C202.279 831.433 201.815 831.601 201.439 831.937C201.071 832.273 200.855 832.713 200.791 833.257H204.871C204.807 832.721 204.587 832.285 204.211 831.949C203.843 831.605 203.383 831.433 202.831 831.433ZM208.678 831.589C208.878 831.221 209.174 830.941 209.566 830.749C209.958 830.557 210.434 830.461 210.994 830.461V831.577C210.93 831.569 210.842 831.565 210.73 831.565C210.106 831.565 209.614 831.753 209.254 832.129C208.902 832.497 208.726 833.025 208.726 833.713V836.881H207.574V830.521H208.678V831.589ZM218.3 830.521L215.516 836.881H214.34L211.556 830.521H212.756L214.94 835.621L217.172 830.521H218.3ZM224.947 833.737C224.947 833.825 224.939 833.941 224.923 834.085H219.763C219.835 834.645 220.079 835.097 220.495 835.441C220.919 835.777 221.443 835.945 222.067 835.945C222.827 835.945 223.439 835.689 223.903 835.177L224.539 835.921C224.251 836.257 223.891 836.513 223.459 836.689C223.035 836.865 222.559 836.953 222.031 836.953C221.359 836.953 220.763 836.817 220.243 836.545C219.723 836.265 219.319 835.877 219.031 835.381C218.751 834.885 218.611 834.325 218.611 833.701C218.611 833.085 218.747 832.529 219.019 832.033C219.299 831.537 219.679 831.153 220.159 830.881C220.647 830.601 221.195 830.461 221.803 830.461C222.411 830.461 222.951 830.601 223.423 830.881C223.903 831.153 224.275 831.537 224.539 832.033C224.811 832.529 224.947 833.097 224.947 833.737ZM221.803 831.433C221.251 831.433 220.787 831.601 220.411 831.937C220.043 832.273 219.827 832.713 219.763 833.257H223.843C223.779 832.721 223.559 832.285 223.183 831.949C222.815 831.605 222.355 831.433 221.803 831.433ZM232.547 827.977V836.881H231.443V835.873C231.187 836.225 230.863 836.493 230.471 836.677C230.079 836.861 229.647 836.953 229.175 836.953C228.559 836.953 228.007 836.817 227.519 836.545C227.031 836.273 226.647 835.893 226.367 835.405C226.095 834.909 225.959 834.341 225.959 833.701C225.959 833.061 226.095 832.497 226.367 832.009C226.647 831.521 227.031 831.141 227.519 830.869C228.007 830.597 228.559 830.461 229.175 830.461C229.631 830.461 230.051 830.549 230.435 830.725C230.819 830.893 231.139 831.145 231.395 831.481V827.977H232.547ZM229.271 835.945C229.671 835.945 230.035 835.853 230.363 835.669C230.691 835.477 230.947 835.213 231.131 834.877C231.315 834.533 231.407 834.141 231.407 833.701C231.407 833.261 231.315 832.873 231.131 832.537C230.947 832.193 230.691 831.929 230.363 831.745C230.035 831.561 229.671 831.469 229.271 831.469C228.863 831.469 228.495 831.561 228.167 831.745C227.847 831.929 227.591 832.193 227.399 832.537C227.215 832.873 227.123 833.261 227.123 833.701C227.123 834.141 227.215 834.533 227.399 834.877C227.591 835.213 227.847 835.477 228.167 835.669C228.495 835.853 228.863 835.945 229.271 835.945Z" fill="white"/>
</g>
<defs>
<clipPath id="clip0_4_4">
<rect width="375" height="898.881" fill="white"/>
</clipPath>
</defs>
</svg>
