<?xml version="1.0" encoding="utf-8"?>
<!-- Generator: Adobe Illustrator 25.2.0, SVG Export Plug-In . SVG Version: 6.00 Build 0)  -->
<svg version="1.1" id="Calque_1" xmlns="http://www.w3.org/2000/svg" xmlns:xlink="http://www.w3.org/1999/xlink" x="0px" y="0px"
	 viewBox="0 0 122 39.4" style="enable-background:new 0 0 122 39.4;" xml:space="preserve">
<style type="text/css">
	.st0{fill:#FFFFFF;}
</style>
<path class="st0" d="M11.6,20.1l-6.5,6.7v9.4H0V0h5.1v20.2L24.6,0h5.9L15.2,16.2l16.3,19.9h-6L11.6,20.1z"/>
<path class="st0" d="M68.9,33.2l2-3.9c2.3,1.6,6,2.8,9.5,2.8c4.6,0,6.4-1.4,6.4-3.8c0-6.1-17.2-0.9-17.2-11.7
	c0-4.9,4.4-8.2,11.3-8.2c3.5,0,7.6,1,9.9,2.5l-2.1,3.9c-2.5-1.6-5.1-2.1-7.8-2.1c-4.3,0-6.4,1.6-6.4,3.8c0,6.4,17.2,1.2,17.2,11.8
	c0,4.9-4.5,8.1-11.8,8.1C75.6,36.4,71.1,35,68.9,33.2z"/>
<path class="st0" d="M122,19.6v16.6h-4.7v-3.7c-1.6,2.5-4.7,3.9-9,3.9c-6.2,0-10-3.3-10-8.1c0-4.4,2.8-8,10.9-8h7.8v-1
	c0-4.2-2.5-6.6-7.3-6.6c-3.2,0-6.5,1.2-8.7,2.9l-2-3.8c2.8-2.3,6.8-3.5,11.2-3.5C117.8,8.5,122,12.1,122,19.6z M117.1,27.7v-3.9
	h-7.6c-4.9,0-6.3,1.9-6.3,4.2c0,2.7,2.2,4.4,6,4.4C112.9,32.6,115.9,31,117.1,27.7z"/>
<path class="st0" d="M53.1,28.9v7.3l3.1-1.8v-7.3L53.1,28.9z"/>
<path class="st0" d="M61.6,20l-12.7-7.4l-7.1-4.1l-6.9,12.1L35,32l12.6,7.4l1.3-0.8V27.9l5.7-10l5.8,3.3V32l1.3-0.8V20z"/>
</svg>
